<svg width="291" height="361" viewBox="0 0 291 361" fill="none" xmlns="http://www.w3.org/2000/svg">
<path d="M200.75 90.25C250.561 90.25 291 49.811 291 0.000450134L200.75 0.000450134V90.25Z" fill="#011A0C"/>
<path d="M200.75 180.5V90.2505H110.501C110.501 140.061 150.94 180.5 200.75 180.5Z" fill="#011A0C"/>
<path d="M291 180.5H200.75C200.75 230.311 241.189 270.75 291 270.75V180.5Z" fill="#B29738"/>
<path d="M200.75 270.165V181.077C200.75 180.753 200.49 180.493 200.165 180.493C150.68 180.493 110.501 220.672 110.501 270.157C110.501 270.482 110.761 270.742 111.086 270.742H200.173C200.498 270.742 200.758 270.482 200.758 270.157L200.75 270.165Z" fill="#011A0C"/>
<path d="M110.501 360.998H200.75C200.75 311.188 160.311 270.748 110.501 270.748L110.501 360.998Z" fill="#011A0C"/>
<rect x="200.75" y="270.749" width="90.2498" height="90.2498" fill="#011A0C"/>
<path d="M200.75 90.4307L110.501 90.4307L110.501 0.181114L200.75 0.181114V90.4307Z" fill="#B29738"/>
<path d="M110.501 279.052V280.496C154.889 280.496 191.003 316.603 191.003 360.998H192.447C192.447 315.809 155.683 279.052 110.501 279.052Z" fill="#B29738"/>
<path d="M110.501 288.077V289.521C149.915 289.521 181.979 321.585 181.979 360.999H183.423C183.423 320.784 150.709 288.077 110.501 288.077Z" fill="#B29738"/>
<path d="M110.501 297.104V298.548C144.94 298.548 172.953 326.561 172.953 361H174.397C174.397 325.767 145.734 297.104 110.501 297.104Z" fill="#B29738"/>
<path d="M110.501 306.127V307.571C139.958 307.571 163.929 331.534 163.929 360.999H165.373C165.373 330.74 140.76 306.127 110.501 306.127Z" fill="#B29738"/>
<path d="M110.501 315.151V316.595C134.984 316.595 154.904 336.508 154.904 360.998H156.348C156.348 335.714 135.778 315.151 110.501 315.151Z" fill="#B29738"/>
<path d="M110.501 324.177V325.621C130.009 325.621 145.879 341.49 145.879 360.999H147.323C147.323 340.689 130.803 324.177 110.501 324.177Z" fill="#B29738"/>
<path d="M110.501 333.202V334.646C125.035 334.646 136.854 346.465 136.854 360.999H138.298C138.298 345.671 125.829 333.202 110.501 333.202Z" fill="#B29738"/>
<path d="M110.501 342.229V343.673C120.053 343.673 127.829 351.441 127.829 361H129.273C129.273 350.647 120.854 342.229 110.501 342.229Z" fill="#B29738"/>
<path d="M110.501 351.252V352.696C115.078 352.696 118.804 356.421 118.804 360.999H120.248C120.248 355.62 115.873 351.252 110.501 351.252Z" fill="#B29738"/>
<path d="M200.75 98.5527V99.9967C245.139 99.9967 281.253 136.104 281.253 180.499H282.697C282.697 135.31 245.933 98.5527 200.75 98.5527Z" fill="#B29738"/>
<path d="M200.75 107.577V109.021C240.164 109.021 272.228 141.085 272.228 180.499H273.672C273.672 140.284 240.958 107.577 200.75 107.577Z" fill="#B29738"/>
<path d="M200.75 116.604V118.048C235.19 118.048 263.203 146.061 263.203 180.5H264.647C264.647 145.267 235.984 116.604 200.75 116.604Z" fill="#B29738"/>
<path d="M200.75 125.628V127.072C230.208 127.072 254.178 151.035 254.178 180.5H255.622C255.622 150.241 231.009 125.628 200.75 125.628Z" fill="#B29738"/>
<path d="M200.75 134.652V136.096C225.233 136.096 245.153 156.009 245.153 180.499H246.597C246.597 155.215 226.027 134.652 200.75 134.652Z" fill="#B29738"/>
<path d="M200.75 143.678V145.122C220.259 145.122 236.128 160.991 236.128 180.5H237.572C237.572 160.19 221.053 143.678 200.75 143.678Z" fill="#B29738"/>
<path d="M200.75 152.702V154.146C215.284 154.146 227.103 165.965 227.103 180.499H228.547C228.547 165.171 216.078 152.702 200.75 152.702Z" fill="#B29738"/>
<path d="M200.75 161.729V163.173C210.302 163.173 218.078 170.941 218.078 180.5H219.522C219.522 170.147 211.104 161.729 200.75 161.729Z" fill="#B29738"/>
<path d="M200.75 170.753V172.197C205.328 172.197 209.053 175.922 209.053 180.5H210.497C210.497 175.121 206.122 170.753 200.75 170.753Z" fill="#B29738"/>
<path d="M291 262.447V261.003C246.612 261.003 210.497 224.896 210.497 180.5H209.053C209.053 225.69 245.817 262.447 291 262.447Z" fill="#B29738"/>
<path d="M291 253.422V251.978C251.586 251.978 219.522 219.914 219.522 180.5H218.078C218.078 220.715 250.792 253.422 291 253.422Z" fill="#B29738"/>
<path d="M291 244.397V242.953C256.561 242.953 228.547 214.939 228.547 180.5H227.103C227.103 215.733 255.766 244.397 291 244.397Z" fill="#B29738"/>
<path d="M291 235.372V233.928C261.542 233.928 237.572 209.965 237.572 180.5H236.128C236.128 210.759 260.741 235.372 291 235.372Z" fill="#B29738"/>
<path d="M291 226.347V224.903C266.517 224.903 246.597 204.99 246.597 180.5H245.153C245.153 205.784 265.723 226.347 291 226.347Z" fill="#B29738"/>
<path d="M291 217.322V215.878C271.492 215.878 255.622 200.008 255.622 180.5H254.178C254.178 200.81 270.697 217.322 291 217.322Z" fill="#B29738"/>
<path d="M291 208.297V206.853C276.466 206.853 264.647 195.034 264.647 180.5H263.203C263.203 195.828 275.672 208.297 291 208.297Z" fill="#B29738"/>
<path d="M291 199.272V197.828C281.448 197.828 273.672 190.059 273.672 180.5H272.228C272.228 190.853 280.646 199.272 291 199.272Z" fill="#B29738"/>
<path d="M291 190.247V188.803C286.422 188.803 282.697 185.077 282.697 180.5H281.253C281.253 185.879 285.628 190.247 291 190.247Z" fill="#B29738"/>
<path d="M200.75 172.197V170.753C156.362 170.753 120.248 134.646 120.248 90.25H118.804C118.804 135.44 155.568 172.197 200.75 172.197Z" fill="#B29738"/>
<path d="M200.75 163.172V161.728C161.337 161.728 129.273 129.664 129.273 90.25H127.829C127.829 130.465 160.542 163.172 200.75 163.172Z" fill="#B29738"/>
<path d="M200.75 154.147V152.703C166.311 152.703 138.298 124.689 138.298 90.25H136.854C136.854 125.483 165.517 154.147 200.75 154.147Z" fill="#B29738"/>
<path d="M200.75 145.122V143.678C171.293 143.678 147.323 119.715 147.323 90.25H145.879C145.879 120.509 170.491 145.122 200.75 145.122Z" fill="#B29738"/>
<path d="M200.75 136.097V134.653C176.267 134.653 156.348 114.74 156.348 90.25H154.904C154.904 115.534 175.473 136.097 200.75 136.097Z" fill="#B29738"/>
<path d="M200.75 127.072V125.628C181.242 125.628 165.372 109.758 165.372 90.25H163.928C163.928 110.56 180.448 127.072 200.75 127.072Z" fill="#B29738"/>
<path d="M200.75 118.047V116.603C186.217 116.603 174.397 104.784 174.397 90.25H172.953C172.953 105.578 185.422 118.047 200.75 118.047Z" fill="#B29738"/>
<path d="M200.75 109.022V107.578C191.198 107.578 183.422 99.8092 183.422 90.25H181.978C181.978 100.603 190.397 109.022 200.75 109.022Z" fill="#B29738"/>
<path d="M200.75 99.997V98.553C196.173 98.553 192.447 94.8275 192.447 90.25H191.003C191.003 95.6289 195.379 99.997 200.75 99.997Z" fill="#B29738"/>
<path d="M118.804 0H120.248V90.2495H118.804V0Z" fill="#B29738"/>
<path d="M127.829 0H129.273V90.2495H127.829V0Z" fill="#B29738"/>
<path d="M136.854 0H138.298V90.2495H136.854V0Z" fill="#B29738"/>
<path d="M145.879 0H147.323V90.2495H145.879V0Z" fill="#B29738"/>
<path d="M154.904 0H156.348V90.2495H154.904V0Z" fill="#B29738"/>
<path d="M163.929 0H165.373V90.2495H163.929V0Z" fill="#B29738"/>
<path d="M172.953 0H174.397V90.2495H172.953V0Z" fill="#B29738"/>
<path d="M181.979 0H183.423V90.2495H181.979V0Z" fill="#B29738"/>
<path d="M191.003 0H192.447V90.2495H191.003V0Z" fill="#B29738"/>
<path d="M0 179.5C64.4085 183.167 67.359 186.145 71 251C74.641 186.138 77.5985 183.167 142 179.5C77.5915 175.833 74.641 172.855 71 108C67.359 172.862 64.4015 175.833 0 179.5Z" fill="#B29738"/>
</svg>
