<svg width="532" height="816" viewBox="0 0 532 816" fill="none" xmlns="http://www.w3.org/2000/svg">
<path fill-rule="evenodd" clip-rule="evenodd" d="M274.084 0L228.326 0.0436994L112.143 0.167425L112.283 85.6265C112.232 90.8961 112.221 96.1666 112.25 101.437C108.915 100.635 106.008 100.139 102.628 99.5929L102.173 145.05C102.772 145.198 103.381 145.346 103.996 145.495C106.833 146.183 109.798 146.902 112.474 147.862L112.509 254.268L86.7168 254.336L86.7654 426.527L58.9136 426.577L59.0351 738.49C64.5469 738.485 70.2364 738.434 75.9851 738.382C88.1951 738.272 100.673 738.16 112.283 738.481C112.297 739.327 112.304 740.255 112.312 741.217C112.332 743.7 112.353 746.409 112.496 748.527C112.501 755.786 112.528 763.09 112.554 770.407C112.609 785.524 112.664 800.701 112.532 815.675C118.458 816.165 125.473 815.998 132.337 815.834C136.933 815.725 141.462 815.617 145.551 815.709C154.94 815.92 164.499 815.856 173.907 815.794L175.156 815.786L279.63 815.742L343.642 815.834C344.45 815.836 345.74 815.847 347.332 815.862C354.688 815.929 368.492 816.054 370.91 815.538L371.599 815.098C373.819 814.642 380.16 814.688 383.796 814.715C384.399 814.72 384.929 814.723 385.352 814.724L409.957 814.79C418.438 814.802 427.201 814.706 436.039 814.609C452.46 814.43 469.138 814.248 484.745 814.749C494.585 815.122 505.776 815.015 516.541 814.912C521.466 814.865 526.301 814.819 530.877 814.819C531.256 773.948 531.135 732.485 531.013 691.184C530.955 671.25 530.896 651.354 530.894 631.581L530.9 562.741C530.902 559.481 530.932 555.983 530.963 552.384C531.043 543.126 531.128 533.198 530.754 524.935C530.4 522.459 530.447 514.881 530.474 510.502C530.479 509.635 530.484 508.894 530.485 508.342L530.508 475.441L530.509 352.332C524.899 352.165 518.797 352.213 512.858 352.26C510.205 352.281 507.586 352.302 505.058 352.303L505.007 309.691C497.924 309.761 490.84 309.767 483.756 309.712L483.715 117.529L457.671 117.615L457.234 117.617L448.769 117.645V117.617H443.127V117.642L435.429 117.665L435.429 117.617H429.673L429.673 117.631L421.944 117.69L421.943 117.617H416.076L416.075 117.692L408.334 117.716L408.334 117.617H403.503H399.42L398.373 117.634C397.193 117.653 395.996 117.673 394.787 117.692C386.327 117.824 377.29 117.911 369.421 117.537C373.549 108.041 379.354 100.533 386.747 94.2676C387.017 94.273 387.379 94.2846 387.802 94.2983C390.045 94.3707 394.012 94.4987 395.16 94.0333C396.384 93.5374 397.382 92.8014 398.164 91.9023C401.186 88.4305 400.99 82.527 398.164 78.6328C397.483 77.6943 396.65 76.8724 395.672 76.2294C393.542 75.8305 387.725 75.8864 384.37 75.9186C383.792 75.9242 383.286 75.929 382.885 75.9307L358.929 76.0421L274.128 76.0152L274.084 0Z" fill="#334D2D"/>
<path fill-rule="evenodd" clip-rule="evenodd" d="M398.371 117.633C388.932 117.79 378.413 117.964 369.421 117.536C367.019 122.077 360.694 137.555 359.662 142.835C353.217 164.002 349.947 184.807 348.012 207.077C349.224 207.856 350.817 208.211 352.582 208.606C354.988 209.143 357.715 209.752 360.233 211.602L358.36 212.078C372.146 217.914 383.062 228.262 389.232 243.719C391.244 248.721 392.623 254.025 393.33 259.473C394.038 264.864 394.017 270.597 393.997 276.189C393.991 277.849 393.986 279.496 393.999 281.118C394.041 286.303 394.013 291.52 393.984 296.738C393.949 303.295 393.914 309.855 394.017 316.364C394.542 327.482 394.401 339.72 394.261 351.889C394.154 361.114 394.048 370.299 394.233 378.926L398.773 380.057C412.296 381.536 413.676 398.966 401.064 405.489C398.716 406.22 397.126 406.323 394.894 406.467C394.604 406.486 394.303 406.505 393.988 406.527L394.022 412.987C397.088 413.318 398.076 413.507 401.039 414.448C404.687 416.165 407.209 417.627 408.985 422.139C410.186 425.196 410.189 428.696 408.992 431.756C407.238 436.27 404.746 437.601 401.238 439.475C401.083 439.557 400.926 439.641 400.768 439.727C400.243 439.849 399.669 439.958 399.076 440.071C397.349 440.399 395.46 440.759 394.168 441.561C394.131 441.697 394.098 441.818 394.068 441.927C393.868 442.652 393.805 442.88 393.76 443.812C393.79 444.389 393.791 444.811 393.792 445.142C393.796 446.14 393.796 446.31 394.56 447.442C395.874 447.991 396.715 448.032 397.614 448.075C398.521 448.119 399.487 448.166 401.055 448.74C404.842 450.57 407.577 452.28 409.225 457.083C410.268 460.202 410.121 463.679 408.821 466.668C405.98 473.25 400.147 474.449 394.373 474.001C394.123 486.116 394.233 498.424 394.344 510.718C394.437 521.13 394.531 531.532 394.405 541.801C394.382 543.684 394.405 546.44 394.431 549.545C394.495 557.186 394.577 566.937 394.029 570.957C393.501 597.578 382.988 614.313 362.74 626.448L362.333 627.516L360.303 628.405L362.031 628.764L361.74 628.963C361.722 638.092 361.754 647.222 361.836 656.351L433.224 656.342C433.214 654.036 433.192 651.612 433.169 649.126C433.093 640.723 433.011 631.611 433.357 623.942C433.557 629.857 433.529 635.792 433.502 641.719C433.479 646.602 433.456 651.479 433.56 656.336C438.852 656.307 444.283 656.32 449.76 656.332C461.477 656.358 473.409 656.385 484.657 656.019L484.745 814.749C494.585 815.122 505.777 815.015 516.541 814.911C521.466 814.864 526.301 814.818 530.877 814.819C531.256 773.946 531.134 732.48 531.013 691.178C530.955 671.246 530.896 651.352 530.894 631.58L530.9 562.74C530.902 559.481 530.932 555.982 530.963 552.382C531.043 543.125 531.128 533.197 530.755 524.934C530.4 522.459 530.447 514.88 530.474 510.501C530.479 509.635 530.484 508.893 530.485 508.342L530.508 475.441L530.509 352.332C524.899 352.164 518.796 352.213 512.858 352.26C510.205 352.281 507.586 352.302 505.058 352.303L505.007 309.691C497.924 309.76 490.84 309.767 483.756 309.711L483.715 117.529L457.671 117.615L457.234 117.616L448.769 117.644V117.616H443.127V117.641L435.429 117.664L435.429 117.616H429.673L429.673 117.631L421.944 117.689L421.943 117.616H416.076L416.075 117.691L408.334 117.715L408.334 117.616H403.503H399.42L398.371 117.633Z" fill="#011A0C"/>
<path fill-rule="evenodd" clip-rule="evenodd" d="M399.42 117.616L398.373 117.633C388.934 117.789 378.413 117.964 369.421 117.536C367.019 122.077 360.694 137.555 359.662 142.834C353.217 164.002 349.947 184.806 348.012 207.077C349.224 207.855 350.817 208.211 352.582 208.605C354.988 209.143 357.715 209.752 360.233 211.602L358.36 212.077C372.146 217.914 383.062 228.262 389.232 243.719C391.244 248.721 392.623 254.025 393.33 259.473C394.038 264.864 394.017 270.597 393.997 276.189C393.991 277.849 393.986 279.496 393.999 281.118C394.041 286.303 394.013 291.519 393.984 296.738C393.949 303.294 393.914 309.855 394.017 316.364C394.542 327.482 394.401 339.72 394.261 351.889C394.154 361.114 394.048 370.299 394.233 378.925L398.773 380.057C412.296 381.536 413.676 398.966 401.064 405.488C398.716 406.219 397.126 406.322 394.894 406.467C394.604 406.485 394.303 406.505 393.988 406.527L394.022 412.986C397.088 413.318 398.076 413.507 401.039 414.447C404.687 416.165 407.209 417.627 408.985 422.138C410.186 425.196 410.189 428.696 408.992 431.755C407.238 436.269 404.746 437.6 401.238 439.474C401.083 439.557 400.926 439.641 400.768 439.726C400.243 439.848 399.669 439.958 399.076 440.07C397.349 440.399 395.46 440.758 394.168 441.561C394.131 441.697 394.098 441.817 394.068 441.927C393.868 442.652 393.805 442.88 393.76 443.811C393.79 444.389 393.791 444.811 393.792 445.142C393.796 446.14 393.796 446.309 394.56 447.441C395.874 447.99 396.715 448.031 397.614 448.075C398.521 448.119 399.487 448.166 401.055 448.74C404.842 450.57 407.577 452.28 409.225 457.082C410.268 460.201 410.121 463.678 408.821 466.668C405.98 473.249 400.147 474.448 394.373 474.001C394.123 486.116 394.233 498.423 394.344 510.718C394.437 521.13 394.531 531.532 394.405 541.801C394.382 543.683 394.405 546.44 394.431 549.545C394.495 557.186 394.577 566.936 394.029 570.957C393.501 597.577 382.988 614.313 362.74 626.448L362.333 627.516L360.303 628.404L362.031 628.764L361.74 628.962C361.722 638.091 361.754 647.221 361.836 656.351L433.224 656.342C433.214 654.036 433.192 651.612 433.169 649.126C433.093 640.722 433.011 631.611 433.357 623.942C433.687 616.916 433.578 607.643 433.478 599.052C433.431 595.089 433.387 591.272 433.387 587.886L433.429 513.058L433.482 403.399C433.646 368.295 433.595 333.19 433.334 298.087C439.531 294.488 443.939 291.445 449.185 286.08C462.158 272.887 469.947 254.26 470.793 234.405C471.816 214.213 465.736 194.392 453.911 179.376C441.206 163.135 424.384 155.213 405.615 154.069C405.627 152.147 405.643 150.083 405.659 147.927C405.73 138.565 405.815 127.471 405.631 118.755C405.613 117.884 405.38 117.893 404.916 117.911C404.574 117.925 404.105 117.943 403.503 117.616H399.42Z" fill="#B29738"/>
<path d="M359.662 142.835C360.905 145.23 360.352 203.289 360.233 211.603C355.868 208.395 350.877 208.918 348.012 207.078C349.947 184.807 353.217 164.003 359.662 142.835Z" fill="#E9DBC1"/>
<path d="M405.53 191.581C409.347 191.859 413.1 192.827 416.654 194.449C435.071 202.831 442.491 225.429 435.012 246.107C434.583 247.15 434.478 247.254 433.848 248.171C433.102 246.957 433.447 241.358 433.471 239.483C424.605 239.16 414.526 239.386 405.568 239.365C405.634 223.437 405.621 207.508 405.53 191.581Z" fill="#011A0C"/>
<path d="M405.443 161.302C409.24 161.524 412.222 161.819 415.974 162.647C431.791 166.147 445.732 176.744 454.701 192.081C463.476 207.165 466.662 225.628 463.559 243.406C460.23 261.944 451.639 276.383 437.953 286.805L433.638 289.603C433.476 286.672 433.439 283.464 433.354 280.506C435.327 278.924 437.579 277.042 439.414 275.271C449.921 265.01 456.389 250.337 457.362 234.554C459.737 198.525 436.196 171.796 405.584 169.225L405.443 161.302Z" fill="#011A0C"/>
<path d="M405.587 176.497C417.994 177.812 427.929 181.772 437.179 191.882C446.025 201.567 451.121 214.907 451.333 228.926C451.48 244.307 446.319 256.987 437.055 267.814L433.48 271.245L433.299 260.616C439.025 253.664 442.513 246.117 443.788 236.567C445.376 224.718 442.709 212.635 436.396 203.076C428.282 190.697 418.452 186.254 405.562 184.197L405.587 176.497Z" fill="#011A0C"/>
<path d="M483.756 309.712C490.84 309.768 497.924 309.761 505.007 309.692L505.058 352.304C513.247 352.3 522.394 352.091 530.509 352.333L530.508 475.442L530.485 508.343C530.481 511.681 530.33 521.97 530.754 524.935C523.537 524.89 516.319 524.897 509.101 524.955C508.936 514.13 508.889 503.302 508.959 492.474L488.098 492.412L488.059 460.61C481.311 460.676 474.457 460.58 467.701 460.555C467.601 450.054 467.549 439.555 467.546 429.054L449.044 429.04C449.571 390.144 449.371 348.686 449.069 309.75L483.756 309.712Z" fill="#334D2D"/>
<path d="M112.143 0.168159L228.326 0.0444336L228.395 259.683L196.61 259.685C196.695 276.645 196.687 293.607 196.586 310.567L157.103 310.675L157.113 368.052L107.472 368.102L107.421 426.572C100.624 426.57 93.5381 426.686 86.7652 426.528L86.7166 254.337L112.508 254.268L112.474 147.862C109.218 146.695 105.533 145.884 102.172 145.051L102.628 99.5937C106.008 100.139 108.915 100.636 112.25 101.438C112.221 96.1674 112.232 90.8968 112.283 85.6273L112.143 0.168159Z" fill="#011A0C"/>
<path d="M157.683 143.23C141.903 118.665 111.647 96.0106 84.9597 91.9465L84.6907 91.9282C81.3558 91.1262 78.4483 90.6296 75.0681 90.084L74.613 135.541C77.9739 136.374 81.6583 137.186 84.9145 138.353C98.3136 142.552 113.937 154.267 122.815 166.265C140.51 190.176 143.452 214.795 141.631 244.619C154.712 244.537 167.794 244.562 180.876 244.694C183.223 205.845 178.771 176.059 157.683 143.23Z" fill="#334D2D"/>
<path d="M112.496 748.527C112.747 743.984 112.561 736.721 112.56 732.03L112.538 699.409L112.573 602.331C112.562 588.833 112.3 575.221 112.586 561.736C113.906 499.475 158.217 454.849 211.104 454.488L211.07 470.552L211.223 478.151C209.218 478.165 207.333 478.083 205.361 478.49L211.164 478.563L211.145 490.905C209.605 491.026 207.758 491.104 206.26 491.369C207.897 491.359 209.577 491.067 210.844 492.117C211.75 493.753 211.326 496.766 211.24 498.871C211.17 503.206 211.104 507.345 211.201 511.689C211.648 513.55 211.748 518.009 211.183 519.723C210.813 543.551 211.501 567.823 211.091 591.58C203.211 591.577 192.68 591.242 184.985 591.625L183.542 591.73C182.198 594.13 182.968 609.661 183.272 613.026C185.497 637.655 195.445 658.05 210.894 674.878L211.029 777.707L371.801 777.721C371.341 789.44 372.311 804.599 371.599 815.098L370.91 815.538C367.968 816.166 348.18 815.844 343.642 815.834L279.63 815.741L175.156 815.786C165.346 815.85 155.356 815.929 145.551 815.709C135.355 815.479 122.426 816.494 112.532 815.675C112.728 793.453 112.512 770.785 112.496 748.527Z" fill="#B29738"/>
<path d="M169.68 815.486L169.699 633.648L169.675 584.693C169.672 565.666 167.788 548.919 180.807 534.115C189.765 523.927 198.621 519.886 211.183 519.723C210.812 543.551 211.501 567.823 211.091 591.58C203.211 591.577 192.68 591.242 184.985 591.625L183.542 591.73C182.198 594.13 182.968 609.661 183.272 613.026C185.497 637.655 195.445 658.05 210.894 674.878L211.029 777.707L371.801 777.721C371.341 789.44 372.311 804.599 371.599 815.098L370.91 815.538C363.963 815.089 353.817 815.426 346.643 815.424L300.65 815.417L169.68 815.486Z" fill="#011A0C"/>
<path d="M112.496 748.527C112.747 743.984 112.561 736.721 112.56 732.03L112.538 699.409L112.573 602.331C112.562 588.833 112.3 575.221 112.586 561.736C113.906 499.475 158.217 454.849 211.104 454.488L211.07 470.552C171.327 471.678 137.725 499.391 128.604 545.06C126.064 557.773 126.897 573.214 126.901 586.398L126.92 634.266L126.915 815.448C122.904 815.449 116.284 815.255 112.532 815.675C112.728 793.453 112.512 770.785 112.496 748.527Z" fill="#011A0C"/>
<path d="M205.361 478.49L211.164 478.563L211.145 490.905C209.605 491.026 207.757 491.104 206.26 491.369C175.398 491.509 145.533 525.353 145.138 560.43C145.043 568.856 144.973 577.285 144.962 585.712L144.95 634.309L144.899 815.465C141.133 815.443 137.268 815.575 133.494 815.654C133.153 796.729 133.518 776.19 133.535 757.145L133.577 642.464L133.535 586.621C133.527 576.736 133.11 560.011 134.513 550.786C136.888 534.773 143.163 519.855 152.613 507.75C166.15 490.42 185.103 479.906 205.361 478.49Z" fill="#011A0C"/>
<path d="M151.834 815.583L151.736 634.872L151.678 585.544C151.672 576.713 151.354 561.231 152.703 552.981C154.752 540.311 160.051 528.628 167.922 519.425C179.68 505.596 194.552 499.049 211.24 498.871C211.17 503.206 211.104 507.345 211.2 511.688C198.196 511.717 185.718 517.578 176.437 528.019C161.289 545.277 162.838 563.395 162.923 585.633L162.995 631.362L163.079 815.59L151.834 815.583Z" fill="#011A0C"/>
<path d="M311.575 215.335C321.745 207.874 336.205 204.534 348.012 207.077C350.877 208.918 355.868 208.395 360.233 211.602L358.36 212.078C372.146 217.914 383.062 228.262 389.231 243.719C391.244 248.721 392.623 254.025 393.33 259.473C394.248 266.464 393.941 274.031 393.999 281.119C394.093 292.818 393.831 304.675 394.017 316.364C394.94 335.91 393.804 358.919 394.233 378.926L398.773 380.057C412.296 381.536 413.675 398.967 401.064 405.489C398.411 406.315 396.725 406.339 393.988 406.527L394.022 412.987C397.088 413.318 398.076 413.507 401.039 414.448C404.687 416.165 407.208 417.627 408.985 422.139C410.186 425.196 410.189 428.697 408.992 431.756C407.161 436.469 404.525 437.712 400.767 439.727C398.716 440.205 395.904 440.484 394.168 441.561C393.887 442.6 393.812 442.74 393.76 443.812C393.879 446.134 393.543 445.935 394.56 447.442C397.199 448.545 397.931 447.597 401.055 448.74C404.841 450.57 407.576 452.28 409.225 457.083C410.268 460.202 410.121 463.679 408.821 466.668C405.98 473.25 400.147 474.449 394.372 474.001C387.092 473.029 367.429 473.823 359.042 473.877C342.905 473.982 325.65 473.547 309.647 474.102L310.224 474.229C313.164 474.852 317.756 474.336 318.996 475.091L319.329 476.245C316.741 476.223 304.681 475.705 303.063 476.85L302.943 477.446L302.658 476.633C301.13 475.502 288.994 476.447 285.7 476.043C285.5 475.445 285.346 475.26 285.039 474.718L283.781 474.625C284.538 474.425 285.074 474.233 285.816 473.973C285.859 473.854 286.11 473.249 286.116 472.887C286.258 465.022 286.281 456.702 285.779 448.867C285.516 448.503 285.254 448.14 284.992 447.777L285.777 447.687L286.393 446.45C286.19 444.923 286.301 443.269 286.345 441.715L285.706 440.891C286.486 436.42 285.996 418.372 285.789 413.261L286.447 412.13L286.134 408.092C285.945 406.918 286.09 407.297 285.474 406.374L283.991 406.283C285.002 406.015 284.832 406.051 285.781 405.55C286.397 402.64 286.415 380.864 285.128 378.785C285.543 378.238 285.421 378.096 285.584 377.176L285.414 304.708C285.382 269.674 280.685 238.207 311.413 217.366L311.575 215.335Z" fill="#011A0C"/>
<path d="M291.322 405.259C300.812 405.057 310.285 405.407 319.744 405.248C327.65 405.212 336.512 404.986 344.35 405.372C363.254 405.11 382.161 405.149 401.064 405.489C398.411 406.315 396.725 406.339 393.988 406.528L394.022 412.987C397.088 413.319 398.076 413.508 401.039 414.448C404.687 416.166 407.208 417.628 408.985 422.139C410.186 425.197 410.189 428.697 408.992 431.756C407.161 436.47 404.525 437.713 400.767 439.727C398.716 440.205 395.904 440.484 394.168 441.562C393.887 442.6 393.812 442.74 393.76 443.812C393.879 446.134 393.543 445.935 394.56 447.442C397.199 448.545 397.931 447.598 401.055 448.741C404.841 450.571 407.576 452.281 409.225 457.083C410.268 460.202 410.121 463.679 408.821 466.669C405.98 473.25 400.147 474.449 394.372 474.002C387.092 473.029 367.429 473.824 359.042 473.878C342.905 473.982 325.65 473.547 309.647 474.102L310.224 474.229C313.164 474.853 317.756 474.337 318.996 475.092L319.329 476.245C316.741 476.223 304.681 475.706 303.063 476.851L302.943 477.446L302.658 476.633C301.13 475.503 288.994 476.447 285.7 476.044C285.5 475.445 285.346 475.261 285.039 474.718L283.781 474.626C284.538 474.425 285.074 474.233 285.816 473.974C285.859 473.855 286.11 473.249 286.116 472.887C286.258 465.022 286.281 456.703 285.779 448.868C285.516 448.504 285.254 448.141 284.992 447.777L285.777 447.687L286.393 446.45C286.19 444.924 286.301 443.27 286.345 441.715L285.706 440.891C286.486 436.421 285.996 418.372 285.789 413.261L286.447 412.13L286.134 408.092L287.053 407.32C292.048 406.649 296.844 406.992 302.271 406.143C298.543 406.003 294.991 406.128 291.322 405.259Z" fill="#011A0C"/>
<path d="M286.447 412.13L289.341 411.955L288.956 414.349C288.912 417.97 288.221 438.317 289.63 439.701C295.081 441.252 311.036 439.248 317.371 440.286C318.456 440.463 318.657 440.906 319.196 441.71L319.259 443.887L319.626 442.627C321.055 441.279 336.983 441.864 339.871 441.861C344.925 441.727 352.246 441.537 357.206 441.859C361.39 441.844 365.997 441.947 370.134 441.565C371.938 441.354 375.852 440.938 377.412 441.979C380.242 441.876 391.512 441.217 393.384 442.425L393.619 443.839L393.76 443.812C393.879 446.133 393.543 445.935 394.56 447.442C397.199 448.544 397.931 447.597 401.055 448.74C404.841 450.57 407.576 452.28 409.225 457.083C410.268 460.202 410.121 463.679 408.821 466.668C405.98 473.25 400.147 474.449 394.372 474.001C387.092 473.029 367.429 473.823 359.042 473.877C342.905 473.982 325.65 473.547 309.647 474.102L310.224 474.229C313.164 474.852 317.756 474.336 318.996 475.091L319.329 476.245C316.741 476.223 304.681 475.705 303.063 476.85L302.943 477.445L302.658 476.633C301.13 475.502 288.994 476.446 285.7 476.043C285.5 475.445 285.346 475.26 285.039 474.717L283.781 474.625C284.538 474.425 285.074 474.232 285.816 473.973C285.859 473.854 286.11 473.249 286.116 472.887C286.258 465.022 286.281 456.702 285.779 448.867C285.516 448.503 285.254 448.14 284.992 447.777L285.777 447.687L286.393 446.449C286.19 444.923 286.301 443.269 286.345 441.715L285.706 440.891C286.486 436.42 285.996 418.372 285.789 413.26L286.447 412.13Z" fill="#011A0C"/>
<path d="M286.447 412.13L289.341 411.955L288.956 414.349C288.912 417.97 288.221 438.317 289.63 439.701C295.081 441.252 311.036 439.248 317.371 440.286C318.456 440.463 318.657 440.906 319.196 441.71L319.259 443.887L319.626 442.627C321.055 441.279 336.983 441.864 339.871 441.861C344.925 441.727 352.246 441.537 357.206 441.859C361.39 441.844 365.997 441.947 370.134 441.565C371.938 441.354 375.852 440.938 377.412 441.979C380.242 441.876 391.512 441.217 393.384 442.425L393.619 443.839L393.76 443.812C393.879 446.133 393.543 445.935 394.56 447.442C397.199 448.544 397.931 447.597 401.055 448.74C396.522 449.15 388.929 448.923 384.168 448.932L352.356 448.908L340.146 448.966L300.741 448.988C298.531 448.996 290.143 448.594 288.772 449.74C289.241 456.769 288.927 466.658 288.891 473.949C295.744 473.922 302.819 473.792 309.647 474.102L310.224 474.229C313.164 474.852 317.756 474.336 318.996 475.091L319.329 476.245C316.741 476.223 304.681 475.705 303.063 476.85L302.943 477.445L302.658 476.633C301.13 475.502 288.994 476.446 285.7 476.043C285.5 475.445 285.346 475.26 285.039 474.717L283.781 474.625C284.538 474.425 285.074 474.232 285.816 473.973C285.859 473.854 286.11 473.249 286.116 472.887C286.258 465.022 286.281 456.702 285.779 448.867C285.516 448.503 285.254 448.14 284.992 447.777L285.777 447.687L286.393 446.449C286.19 444.923 286.301 443.269 286.345 441.715L285.706 440.891C286.486 436.42 285.996 418.372 285.789 413.26L286.447 412.13Z" fill="#011A0C"/>
<path d="M286.447 412.13L289.341 411.955L288.956 414.349C288.912 417.97 288.221 438.317 289.63 439.701C295.081 441.252 311.036 439.248 317.371 440.286C318.456 440.463 318.657 440.906 319.196 441.71L302.92 441.66C298.119 441.842 291.023 442.062 286.345 441.715L285.706 440.891C286.486 436.42 285.996 418.372 285.789 413.26L286.447 412.13Z" fill="#011A0C"/>
<path d="M319.259 443.887L319.627 442.628C321.055 441.279 336.983 441.864 339.872 441.861V446.376L319.655 446.372L319.259 443.887Z" fill="#011A0C"/>
<path d="M339.872 441.861C344.925 441.727 352.246 441.537 357.206 441.859L357.225 446.346C351.441 446.412 345.655 446.422 339.872 446.375V441.861Z" fill="#E9DBC1"/>
<path d="M302.92 441.661L319.196 441.711L319.259 443.887L319.655 446.372C317.467 446.55 304.609 446.868 303.16 445.903L302.89 443.676L302.92 441.661Z" fill="#E9DBC1"/>
<path d="M286.345 441.715C291.023 442.062 298.119 441.842 302.92 441.661L302.89 443.676C302.765 444.487 302.76 445.724 302.256 445.884C298.522 447.073 290.472 446.508 286.615 446.441L286.393 446.45C286.19 444.924 286.301 443.27 286.345 441.715Z" fill="#011A0C"/>
<path d="M377.412 441.979C380.243 441.876 391.512 441.217 393.384 442.425L393.619 443.839L393.356 446.093C391.541 446.891 379.642 446.784 377.681 445.883L377.193 444.19L377.412 441.979Z" fill="#011A0C"/>
<path d="M357.206 441.859C361.39 441.843 365.997 441.947 370.134 441.565L370.121 446.636C366.939 446.212 360.632 446.362 357.225 446.346L357.206 441.859Z" fill="#011A0C"/>
<path d="M370.134 441.566C371.938 441.355 375.852 440.939 377.412 441.98L377.193 444.191C376.991 445.375 377.143 445.842 376.472 446.389C375.241 447.391 371.647 446.934 370.121 446.637L370.134 441.566Z" fill="#B29738"/>
<path d="M291.322 405.259C300.812 405.057 310.285 405.407 319.744 405.248C327.65 405.212 336.512 404.986 344.35 405.372C363.254 405.11 382.161 405.149 401.064 405.489C398.411 406.315 396.725 406.339 393.988 406.528L394.022 412.987C397.088 413.319 398.076 413.508 401.039 414.448C392.887 414.934 382.867 414.63 374.579 414.627C347.479 415.016 315.914 415.125 288.956 414.349L289.341 411.956L286.447 412.13L286.134 408.092L287.053 407.32C292.048 406.649 296.844 406.992 302.271 406.143C298.543 406.003 294.991 406.128 291.322 405.259Z" fill="#011A0C"/>
<path d="M320.37 407.42L320.869 407.478C324.243 407.829 339.112 406.945 340.23 408.353C340.165 410.369 340.476 410.694 339.607 411.924C335.024 412.758 324.095 412.055 318.911 412.227L318.423 411.885L318.306 407.666L320.37 407.42Z" fill="#011A0C"/>
<path d="M287.053 407.319L287.53 407.383C291.117 407.823 300.438 406.798 302.576 408.298C302.841 409.266 302.987 409.763 303.137 410.758L302.609 411.782C298.525 411.882 293.339 412.172 289.341 411.955L286.447 412.13L286.134 408.092L287.053 407.319Z" fill="#011A0C"/>
<path d="M303.137 410.758C303.099 408.817 302.787 408.834 303.631 407.801C307.72 407.379 314.018 407.629 318.306 407.665L318.423 411.884C314.558 412.327 308.004 412.13 303.886 412.128L302.609 411.782L303.137 410.758Z" fill="#E9DBC1"/>
<path d="M318.423 411.884L318.911 412.227L318.53 413.636C316.38 414.295 305.664 414.404 303.767 413.673L305.558 413.358C305.028 412.81 304.523 412.49 303.886 412.128C308.004 412.13 314.558 412.327 318.423 411.884Z" fill="#011A0C"/>
<path d="M377.053 407.468L377.631 407.511C381.014 407.747 391.156 407.008 393.275 407.949C393.595 409.232 393.455 410.128 393.38 411.452C392.275 412.759 379.528 412.253 377.046 412.123L377.053 407.468Z" fill="#011A0C"/>
<path d="M340.789 407.431C345.273 407.447 352.535 407.271 356.75 407.796C357.394 408.823 357.165 410.73 357.14 412.095C353.598 412.085 344.181 412.43 341.221 411.878C340.46 410.554 340.731 409.104 340.789 407.431Z" fill="#E9DBC1"/>
<path d="M357.693 407.101C360.288 407.954 367.294 407.797 370.135 407.472L370.072 412.251C365.89 412.009 361.163 413.141 358.103 411.522C357.14 409.693 357.529 409.744 357.693 407.101Z" fill="#011A0C"/>
<path d="M370.135 407.472C371.997 407.154 375.178 407.064 377.052 407.468L377.046 412.123L375.494 412.511C373.533 412.609 371.946 412.867 370.072 412.251L370.135 407.472Z" fill="#B29738"/>
<path d="M289.63 439.7C295.944 439.217 304.119 439.454 310.546 439.453L347.109 439.491L382.572 439.459C388.148 439.48 395.301 439.306 400.767 439.726C398.716 440.205 395.904 440.483 394.168 441.561C393.887 442.599 393.812 442.74 393.76 443.812L393.619 443.838L393.384 442.425C391.512 441.217 380.242 441.876 377.412 441.979C375.852 440.938 371.938 441.354 370.134 441.565C365.997 441.947 361.39 441.843 357.206 441.859C352.246 441.537 344.925 441.727 339.871 441.861C336.983 441.864 321.055 441.279 319.626 442.627L319.259 443.887L319.196 441.71C318.657 440.906 318.456 440.463 317.371 440.285C311.036 439.248 295.081 441.252 289.63 439.7Z" fill="#011A0C"/>
<path d="M398.773 380.057C412.296 381.536 413.676 398.967 401.064 405.489C382.161 405.149 363.254 405.109 344.35 405.371C336.512 404.985 327.65 405.211 319.744 405.248C310.285 405.406 300.812 405.056 291.322 405.258L289.573 405.096C288.446 403.61 288.877 383.615 288.88 380.119C301.593 381.214 320.635 380.298 333.941 380.379L376.346 380.465C383.376 380.425 391.836 380.595 398.773 380.057Z" fill="#011A0C"/>
<path d="M311.307 242.885L312.68 243.489C313.218 244.874 313.18 245.329 313.283 246.806C314.322 256.609 314.527 269.526 314.886 279.497C315.652 301.463 316.294 323.434 316.811 345.409C317.067 354.943 317.047 366.954 317.639 376.168C317.566 376.763 317.426 377.018 317.229 377.59C314.725 378.407 305.923 378.052 302.749 378.005L302.646 370.95L302.655 297.58C302.651 288.975 302.661 280.243 302.615 271.646C302.551 259.583 305.094 252.398 311.307 242.885Z" fill="#E9DBC1"/>
<path d="M346.449 231.45C350.155 232.117 355.587 233.939 359.012 235.725C360.049 236.706 360.36 236.812 360.488 238.779C360.775 243.21 360.702 247.96 360.707 252.407L360.702 278.43C355.368 285.953 356.705 296.097 356.732 305.346L356.819 333.065C350.463 330.146 348.156 330.587 342.148 334.144C343.652 300.51 343.75 264.892 346.449 231.45Z" fill="#E9DBC1"/>
<path d="M369.984 289.052C372.234 288.956 374.682 288.976 376.951 288.942C376.236 314.594 376.838 342.497 376.732 368.367C376.595 371.905 376.595 374.617 376.69 378.16C374.508 378.225 372.274 378.402 370.129 378.043L369.984 289.052Z" fill="#B29738"/>
<path d="M357.887 233.313C371.818 242.431 377.135 255.236 377.057 273.124C369.923 273.165 366.361 272.717 360.701 278.43L360.706 252.406C360.702 247.959 360.775 243.209 360.488 238.778C360.36 236.811 360.049 236.705 359.012 235.724L357.887 233.313Z" fill="#B29738"/>
<path d="M394.017 316.364C394.94 335.911 393.804 358.92 394.233 378.926L398.773 380.057C391.836 380.595 383.376 380.425 376.346 380.466L333.941 380.379C320.635 380.299 301.593 381.214 288.88 380.119C288.877 383.615 288.446 403.61 289.573 405.096L291.322 405.258C294.991 406.128 298.543 406.003 302.271 406.143C296.844 406.992 292.048 406.648 287.053 407.32L286.134 408.092C285.945 406.918 286.09 407.297 285.474 406.375L283.991 406.283C285.002 406.015 284.832 406.051 285.781 405.55C286.397 402.64 286.415 380.864 285.128 378.785C285.543 378.238 285.421 378.096 285.584 377.176C286.589 378.71 300.025 377.931 302.455 377.887C302.486 375.574 302.55 373.262 302.646 370.95L302.749 378.005C305.923 378.052 314.725 378.407 317.229 377.59C317.426 377.018 317.566 376.763 317.638 376.168L318.151 377.525C320.681 378.317 337.321 377.998 341.159 377.984C346.255 378.132 351.639 377.992 356.762 377.943C356.771 371.935 356.625 364.332 357.043 358.488C357.302 364.663 357.063 371.745 357 378.001L370.129 378.043C372.273 378.402 374.508 378.225 376.69 378.16C376.595 374.617 376.595 371.905 376.732 368.367C377.001 370.786 376.984 375.347 377.035 377.948L393.923 378.044C393.916 357.676 393.679 336.685 394.017 316.364Z" fill="#011A0C"/>
<path d="M341.598 356.341C347.177 361.021 350.784 361.421 357.043 358.489C356.625 364.333 356.771 371.935 356.762 377.944C351.639 377.993 346.255 378.132 341.159 377.984C341.246 370.768 341.393 363.554 341.598 356.341Z" fill="#E9DBC1"/>
<path d="M311.306 242.885C323.881 226.836 341.214 225.146 357.887 233.314L359.012 235.725C355.587 233.939 350.154 232.117 346.449 231.45C339.157 230.72 332.251 230.685 325.379 234.019C320.827 236.227 313.281 240.274 313.283 246.806C313.18 245.33 313.217 244.875 312.68 243.489L311.306 242.885Z" fill="#B29738"/>
<path d="M311.575 215.335C321.745 207.874 336.206 204.534 348.012 207.077C350.877 208.918 355.868 208.395 360.233 211.602L358.36 212.078C340.435 206.484 327.901 207.558 311.413 217.366L311.575 215.335Z" fill="#B29738"/>
<path d="M348.318 334.53C352.273 334.1 353.664 334.77 356.878 337.25C356.859 340.045 356.913 343.449 357.053 346.215C357.465 354.347 357.126 356.78 349.937 357.5C346.67 356.773 343.163 355.044 342.087 351.259C339.705 342.88 341.705 337.562 348.318 334.53Z" fill="#E9DBC1"/>
<path d="M309.647 474.102C325.65 473.547 342.905 473.982 359.042 473.878C367.429 473.824 387.092 473.029 394.372 474.002C393.911 496.377 394.679 519.407 394.405 541.802C394.325 548.317 394.8 565.304 394.029 570.958C393.501 597.578 382.987 614.314 362.74 626.449L362.332 627.517L360.303 628.405L362.031 628.765L361.74 628.963C352.723 632.599 345.043 634.28 335.423 633.662C331.152 633.724 326.077 632.088 322.076 630.516C321.278 629.422 321.334 629.377 320.892 628.017C312.694 624.153 306.641 620.84 300.505 613.567C284.643 594.757 285.573 577.92 285.588 554.142L285.637 519.693C285.523 508.065 284.891 487.129 285.7 476.044C288.994 476.447 301.13 475.503 302.658 476.633L302.943 477.446L303.063 476.851C304.681 475.706 316.741 476.223 319.329 476.245L318.996 475.092C317.756 474.337 313.164 474.853 310.224 474.229L309.647 474.102Z" fill="#011A0C"/>
<path d="M338.646 523.101C344.459 523.462 345.361 523.281 350.293 519.588C352.442 519.586 354.727 519.625 356.863 519.566C356.677 530.387 354.947 539.544 362.061 547.921C361.276 565.51 362.423 584.234 361.566 602.218C353.754 607.594 346.174 609.976 336.998 609.562C337.942 607.132 338.616 531.304 338.646 523.101Z" fill="#334D2D"/>
<path d="M318.364 604.557C303.274 594.784 302.688 576.929 302.716 559.617C302.727 552.12 302.793 544.623 302.911 537.128C308.525 545.766 315.895 555.326 321.001 564.08C321.997 577.056 320.764 591.812 321.637 604.548C320.387 604.304 319.408 603.883 318.364 604.557Z" fill="#334D2D"/>
<path d="M362.061 547.921C367.775 551.901 370.343 551.381 376.994 551.322C376.835 569.982 379.032 585.934 366.139 600.159C353.86 613.706 332.205 616.377 318.364 604.556C319.408 603.883 320.387 604.303 321.637 604.547C327.07 607.562 330.906 608.961 336.999 609.561C346.174 609.975 353.754 607.593 361.566 602.218C362.423 584.234 361.276 565.51 362.061 547.921Z" fill="#B29738"/>
<path d="M319.329 476.245L319.575 476.486C319.967 490.874 320.257 505.265 320.444 519.659C317.56 519.685 304.179 520.459 302.81 518.818C303.17 505.324 302.695 491.123 302.943 477.446L303.063 476.85C304.681 475.705 316.741 476.223 319.329 476.245Z" fill="#E9DBC1"/>
<path d="M339.883 476.288C342.771 476.223 355.386 475.55 356.909 476.944C356.726 490.088 356.71 506.339 356.863 519.566C354.727 519.625 352.442 519.586 350.293 519.588C352.39 516.708 353.803 513.28 353.994 509.499C354.218 505.203 352.849 500.998 350.226 497.919C346.832 493.947 343.902 493.441 339.474 493.276C339.467 487.498 339.662 482.06 339.883 476.288Z" fill="#E9DBC1"/>
<path d="M302.81 518.818C304.179 520.459 317.56 519.685 320.444 519.659L320.865 555.831C314.19 546.975 309.07 539.695 303.032 530.268C302.792 526.778 302.848 522.382 302.81 518.818Z" fill="#334D2D"/>
<path d="M370.146 476.149C372.291 476.125 374.494 476.068 376.634 476.103L376.633 516.513C376.634 519.748 376.473 532.402 376.826 535.057L370.193 535.163L370.146 476.149Z" fill="#B29738"/>
<path d="M309.647 474.102C325.65 473.547 342.905 473.982 359.042 473.878C367.429 473.824 387.093 473.029 394.373 474.002C393.911 496.377 394.679 519.407 394.405 541.802C394.325 548.317 394.8 565.304 394.029 570.958C393.677 561.752 394.02 549.71 394.011 540.236L393.969 476.109L377.012 476.148L377.066 514.782C377.074 520.139 377.33 530.148 376.826 535.057C376.473 532.402 376.634 519.749 376.633 516.514L376.634 476.103C374.494 476.069 372.291 476.125 370.146 476.149C367.536 476.114 358.455 475.464 356.909 476.945C355.386 475.551 342.771 476.223 339.882 476.289C336.759 475.882 322.45 475.936 319.575 476.486L319.329 476.245L318.996 475.092C317.756 474.337 313.164 474.853 310.224 474.229L309.647 474.102Z" fill="#011A0C"/>
<path d="M320.892 628.017C337.387 633.372 346.744 632.855 362.74 626.448L362.332 627.516L360.303 628.405L362.031 628.764L361.74 628.963C352.723 632.599 345.043 634.28 335.423 633.662C331.152 633.723 326.077 632.088 322.076 630.515C321.278 629.421 321.334 629.377 320.892 628.017Z" fill="#B29738"/>
<path d="M339.427 496.478C349.94 496.339 355.092 507.693 348.283 517.077C345.071 520.101 342.73 519.701 338.858 519.516C338.978 513.055 338.819 502.475 339.427 496.478Z" fill="#E9DBC1"/>
<path d="M273.798 335.312C273.38 350.545 273.911 365.796 273.557 381.032C273.503 383.383 273.57 385.741 273.193 388.059L282.374 387.977C282.354 383.74 281.829 381.369 285.128 378.785C286.415 380.864 286.397 402.64 285.781 405.55C284.832 406.051 285.002 406.015 283.991 406.283L285.474 406.375C286.091 407.297 285.945 406.918 286.134 408.092L286.447 412.13L285.789 413.261C285.996 418.372 286.486 436.421 285.706 440.891L286.345 441.715C286.301 443.269 286.19 444.923 286.393 446.45L285.777 447.687L284.992 447.777C285.254 448.14 285.517 448.503 285.779 448.867C286.281 456.703 286.258 465.022 286.117 472.887C286.11 473.249 285.859 473.854 285.816 473.973C285.074 474.233 284.538 474.425 283.781 474.626L285.04 474.718C285.346 475.26 285.501 475.445 285.7 476.043C284.891 487.129 285.523 508.064 285.637 519.693L273.778 519.737L228.743 520.011L228.519 335.318L273.798 335.312Z" fill="#B29738"/>
<path d="M273.683 466.532C276.609 466.559 279.205 466.554 282.125 466.388C282.198 469.628 281.858 472.345 283.781 474.625L285.04 474.718C285.346 475.26 285.501 475.445 285.7 476.043C284.891 487.129 285.523 508.064 285.637 519.693L273.778 519.737C273.825 502.001 273.794 484.266 273.683 466.532Z" fill="#E9DBC1"/>
<path d="M272.311 466.271C272.346 467.163 272.373 468.056 272.391 468.95C272.581 477.305 264.754 476.209 264.576 472.761C264.347 468.327 261.884 447.92 267.296 446.726C272.029 445.682 272.397 453.149 272.722 456.217L273.447 456.837L281.958 456.824L282.346 453.303C282.684 450.397 282.975 449.517 284.992 447.777C285.254 448.14 285.517 448.503 285.779 448.867C286.281 456.703 286.258 465.022 286.117 472.887C286.11 473.249 285.859 473.854 285.816 473.973C285.074 474.233 284.538 474.425 283.781 474.625C281.858 472.345 282.198 469.628 282.125 466.388C279.36 466.068 275.192 466.245 272.311 466.271Z" fill="#011A0C"/>
<path d="M272.392 397.384C272.477 399.834 273.069 405.402 270.469 406.543C268.71 407.743 264.174 406.226 264.282 403.61C264.508 398.128 260.405 373.135 271.382 380.184C272.606 380.968 272.395 385.749 272.583 387.437L273.193 388.058L282.374 387.977C282.354 383.74 281.829 381.368 285.128 378.784C286.415 380.864 286.397 402.639 285.781 405.55C284.832 406.05 285.002 406.015 283.991 406.283C281.69 403.197 282.049 401.644 282.037 397.568C279.363 397.192 275.212 397.362 272.392 397.384Z" fill="#011A0C"/>
<path d="M273.281 431.866C271.686 433.845 272.978 437.937 271.439 439.373C266.612 444.088 263.666 437.773 263.951 432.607C264.278 426.692 262.256 416.338 267.261 412.644C272.881 412.12 271.885 418.96 273.059 422.23L282.373 422.151C282.437 417.655 281.803 415.222 285.789 413.261C285.996 418.372 286.486 436.421 285.706 440.891C281.822 438.925 282.378 436.309 282.301 432.017L273.281 431.866Z" fill="#011A0C"/>
<path d="M273.425 397.667C276.346 397.686 279.119 397.705 282.037 397.568C282.049 401.644 281.689 403.197 283.991 406.283L285.474 406.374C286.09 407.296 285.945 406.918 286.134 408.092L286.447 412.13L285.789 413.26C281.803 415.222 282.437 417.655 282.373 422.15L273.059 422.229C273.739 418.967 273.426 402.159 273.425 397.667Z" fill="#E9DBC1"/>
<path d="M273.281 431.866L282.301 432.017C282.378 436.31 281.822 438.925 285.706 440.892L286.345 441.716C286.301 443.27 286.19 444.924 286.393 446.45L285.777 447.687L284.992 447.778C282.975 449.517 282.684 450.398 282.346 453.304L281.958 456.824L273.447 456.838C274.003 453.955 273.794 435.246 273.281 431.866Z" fill="#E9DBC1"/>
<path d="M271.484 94.1492C268.305 94.2501 262.952 94.9705 260.279 92.4107C255.964 88.2784 257.075 77.0226 263.386 76.3541C267.956 75.869 273.442 76.2696 278.172 76.3281L303.55 76.38L395.672 76.2292C396.65 76.8722 397.483 77.694 398.164 78.6326C400.989 82.5268 401.185 88.4302 398.164 91.9021C397.382 92.8012 396.384 93.5372 395.159 94.033C393.796 94.5863 388.448 94.301 386.747 94.2674C379.354 100.533 373.548 108.041 369.421 117.537C367.019 122.077 360.694 137.556 359.662 142.835C353.217 164.002 349.947 184.807 348.012 207.077C336.206 204.534 321.745 207.874 311.575 215.335C310.426 206.938 309.887 197.764 308.75 189.062C304.61 157.374 296.161 117.91 274.005 96.2999C273.322 95.4643 272.338 94.813 271.484 94.1492Z" fill="#011A0C"/>
<path d="M274.005 96.3003C296.161 117.911 304.61 157.374 308.75 189.063C309.887 197.764 310.426 206.938 311.576 215.336L311.413 217.366C280.685 238.207 285.382 269.674 285.414 304.708L285.584 377.176C285.421 378.096 285.543 378.238 285.128 378.785C281.829 381.369 282.354 383.74 282.373 387.977L273.193 388.059C273.57 385.741 273.503 383.383 273.557 381.033C273.911 365.796 273.38 350.546 273.798 335.312C274.759 314.189 274.009 287.208 274.042 265.503L274.115 141.506C274.123 126.531 273.87 111.21 274.005 96.3003Z" fill="#E9DBC1"/>
<path d="M210.894 674.878C195.445 658.05 185.497 637.656 183.272 613.026C182.968 609.661 182.198 594.13 183.542 591.731L184.985 591.625C189.043 592.129 211.564 591.228 212.943 592.708L213.09 593.377C212.456 613.897 215.317 630.308 228.113 645.895C238.152 658.084 252.033 665.156 266.654 665.534C269.287 665.609 273.284 665.501 275.912 665.093C276.657 666.966 276.261 696.273 276.316 700.86C251.341 701.268 229.799 694.638 210.894 674.878Z" fill="#B29738"/>
<path d="M322.076 630.516C326.077 632.088 331.152 633.724 335.423 633.662L336.405 634.126C337.513 636.291 336.736 666.194 336.627 671.162C340.592 677.383 342.199 683.899 336.224 689.467C336.238 691.484 336.252 701.585 336.672 702.431C342.057 713.28 343.223 722.279 343.515 734.997C352.433 735.32 350.488 740.919 350.23 749.363L309.182 749.395C308.944 741.048 306.641 735.283 315.671 735.067C315.846 724.265 316.266 713.99 321.465 705.199C323.044 702.531 322.675 693.773 322.675 690.088C318.787 684.609 318.517 683.9 318.776 676.865C320.082 674.285 320.647 673.222 322.555 671.216C322.219 657.653 322.059 644.084 322.076 630.516Z" fill="#011A0C"/>
<path d="M213.09 593.376L213.609 592.347C216.61 591.837 225.885 592.296 229.361 592.395C229.094 608.105 229.62 620.629 236.955 634.585C244.091 648.161 254.496 657.228 267.719 661.888C269.72 662.592 274.278 664.078 275.912 665.092C273.284 665.5 269.287 665.608 266.654 665.533C252.033 665.156 238.152 658.083 228.113 645.895C215.316 630.308 212.456 613.897 213.09 593.376Z" fill="#011A0C"/>
<path d="M173.433 339.895C94.7672 344.342 91.1636 347.954 86.7166 426.611C82.2696 347.945 78.6574 344.342 0 339.895C78.6659 335.448 82.2696 331.836 86.7166 253.178C91.1636 331.844 94.7757 335.448 173.433 339.895Z" fill="#B29738"/>
</svg>
