<svg width="202" height="403" viewBox="0 0 202 403" fill="none" xmlns="http://www.w3.org/2000/svg">
<path d="M100.75 100.75C45.144 100.75 4.57764e-05 55.6061 4.57764e-05 0.000289917L100.75 0.000289917L100.75 100.75Z" fill="#011A0C"/>
<path d="M100.75 201.5V100.75H201.499C201.499 156.356 156.356 201.5 100.75 201.5Z" fill="#011A0C"/>
<path d="M0 201.5H100.75C100.75 257.106 55.6058 302.25 0 302.25V201.5Z" fill="#B29738"/>
<path d="M100.75 301.597V202.145C100.75 201.783 101.04 201.492 101.403 201.492C156.646 201.492 201.499 246.346 201.499 301.589C201.499 301.952 201.209 302.242 200.847 302.242H101.395C101.032 302.242 100.742 301.952 100.742 301.589L100.75 301.597Z" fill="#011A0C"/>
<path d="M201.5 402.999H100.75C100.75 347.393 145.894 302.249 201.5 302.249V402.999Z" fill="#011A0C"/>
<rect x="-0.00012207" y="302.249" width="100.75" height="100.75" fill="#011A0C"/>
<path d="M100.75 100.952L201.5 100.952V0.202438L100.75 0.202438L100.75 100.952Z" fill="#B29738"/>
<path d="M201.499 311.519V313.131C151.947 313.131 111.631 353.438 111.631 402.999H110.019C110.019 352.552 151.06 311.519 201.499 311.519Z" fill="#B29738"/>
<path d="M201.499 321.594V323.206C157.5 323.206 121.706 359 121.706 403H120.094C120.094 358.105 156.613 321.594 201.499 321.594Z" fill="#B29738"/>
<path d="M201.499 331.67V333.282C163.053 333.282 131.781 364.555 131.781 403.001H130.169C130.169 363.668 162.167 331.67 201.499 331.67Z" fill="#B29738"/>
<path d="M201.499 341.743V343.355C168.615 343.355 141.856 370.106 141.856 402.999H140.244C140.244 369.22 167.72 341.743 201.499 341.743Z" fill="#B29738"/>
<path d="M201.499 351.818V353.43C174.168 353.43 151.93 375.66 151.93 402.999H150.318C150.318 374.773 173.281 351.818 201.499 351.818Z" fill="#B29738"/>
<path d="M201.499 361.894V363.506C179.721 363.506 162.006 381.221 162.006 402.999H160.394C160.394 380.327 178.835 361.894 201.499 361.894Z" fill="#B29738"/>
<path d="M201.499 371.969V373.581C185.275 373.581 172.08 386.775 172.08 403H170.468C170.468 385.888 184.388 371.969 201.499 371.969Z" fill="#B29738"/>
<path d="M201.499 382.045V383.657C190.836 383.657 182.155 392.329 182.155 403.001H180.543C180.543 391.443 189.941 382.045 201.499 382.045Z" fill="#B29738"/>
<path d="M201.499 392.118V393.73C196.389 393.73 192.23 397.889 192.23 402.999H190.618C190.618 396.994 195.503 392.118 201.499 392.118Z" fill="#B29738"/>
<path d="M100.75 110.019V111.631C51.1969 111.631 10.8809 151.938 10.8809 201.499H9.26892C9.26892 151.052 50.3103 110.019 100.75 110.019Z" fill="#B29738"/>
<path d="M100.75 120.094V121.706C56.7502 121.706 20.9559 157.5 20.9559 201.5H19.3439C19.3439 156.605 55.8636 120.094 100.75 120.094Z" fill="#B29738"/>
<path d="M100.75 130.17V131.782C62.3036 131.782 31.0309 163.055 31.0309 201.501H29.4189C29.4189 162.168 61.4171 130.17 100.75 130.17Z" fill="#B29738"/>
<path d="M100.75 140.244V141.856C67.865 141.856 41.1059 168.607 41.1059 201.5H39.4939C39.4939 167.721 66.9704 140.244 100.75 140.244Z" fill="#B29738"/>
<path d="M100.75 150.318V151.93C73.4183 151.93 51.1808 174.16 51.1808 201.499H49.5688C49.5688 173.273 72.5317 150.318 100.75 150.318Z" fill="#B29738"/>
<path d="M100.75 160.394V162.006C78.9716 162.006 61.2558 179.721 61.2558 201.499H59.6438C59.6438 178.827 78.085 160.394 100.75 160.394Z" fill="#B29738"/>
<path d="M100.75 170.469V172.081C84.5249 172.081 71.3307 185.275 71.3307 201.5H69.7188C69.7188 184.388 83.6383 170.469 100.75 170.469Z" fill="#B29738"/>
<path d="M100.75 180.545V182.157C90.0864 182.157 81.4058 190.829 81.4058 201.501H79.7938C79.7938 189.943 89.1918 180.545 100.75 180.545Z" fill="#B29738"/>
<path d="M100.75 190.619V192.231C95.6397 192.231 91.4808 196.39 91.4808 201.5H89.8688C89.8688 195.495 94.7531 190.619 100.75 190.619Z" fill="#B29738"/>
<path d="M0 292.981V291.369C49.5527 291.369 89.8687 251.061 89.8687 201.5H91.4807C91.4807 251.947 50.4393 292.981 0 292.981Z" fill="#B29738"/>
<path d="M0 282.906V281.294C43.9994 281.294 79.7938 245.499 79.7938 201.5H81.4058C81.4058 246.394 44.886 282.906 0 282.906Z" fill="#B29738"/>
<path d="M0 272.831V271.219C38.4461 271.219 69.7188 239.946 69.7188 201.5H71.3308C71.3308 240.833 39.3327 272.831 0 272.831Z" fill="#B29738"/>
<path d="M0 262.756V261.144C32.8847 261.144 59.6438 234.393 59.6438 201.5H61.2558C61.2558 235.279 33.7794 262.756 0 262.756Z" fill="#B29738"/>
<path d="M0 252.681V251.069C27.3314 251.069 49.5689 228.839 49.5689 201.5H51.1809C51.1809 229.726 28.218 252.681 0 252.681Z" fill="#B29738"/>
<path d="M0 242.606V240.994C21.7781 240.994 39.4939 223.278 39.4939 201.5H41.1059C41.1059 224.173 22.6647 242.606 0 242.606Z" fill="#B29738"/>
<path d="M0 232.531V230.919C16.2247 230.919 29.4189 217.725 29.4189 201.5H31.0309C31.0309 218.611 17.1113 232.531 0 232.531Z" fill="#B29738"/>
<path d="M0 222.456V220.844C10.6633 220.844 19.3439 212.171 19.3439 201.5H20.9559C20.9559 213.058 11.558 222.456 0 222.456Z" fill="#B29738"/>
<path d="M0 212.381V210.769C5.11002 210.769 9.26897 206.61 9.26897 201.5H10.881C10.881 207.505 5.99662 212.381 0 212.381Z" fill="#B29738"/>
<path d="M100.75 192.231V190.619C150.302 190.619 190.618 150.311 190.618 100.75H192.23C192.23 151.197 151.189 192.231 100.75 192.231Z" fill="#B29738"/>
<path d="M100.75 182.156V180.544C144.749 180.544 180.544 144.749 180.544 100.75H182.156C182.156 145.644 145.636 182.156 100.75 182.156Z" fill="#B29738"/>
<path d="M100.75 172.081V170.469C139.196 170.469 170.469 139.196 170.469 100.75H172.081C172.081 140.083 140.082 172.081 100.75 172.081Z" fill="#B29738"/>
<path d="M100.75 162.006V160.394C133.634 160.394 160.394 133.643 160.394 100.75H162.006C162.006 134.529 134.529 162.006 100.75 162.006Z" fill="#B29738"/>
<path d="M100.75 151.931V150.319C128.081 150.319 150.319 128.089 150.319 100.75H151.931C151.931 128.976 128.968 151.931 100.75 151.931Z" fill="#B29738"/>
<path d="M100.75 141.856V140.244C122.528 140.244 140.244 122.528 140.244 100.75H141.856C141.856 123.423 123.414 141.856 100.75 141.856Z" fill="#B29738"/>
<path d="M100.75 131.781V130.169C116.974 130.169 130.169 116.975 130.169 100.75H131.781C131.781 117.861 117.861 131.781 100.75 131.781Z" fill="#B29738"/>
<path d="M100.75 121.706V120.094C111.413 120.094 120.094 111.421 120.094 100.75H121.706C121.706 112.308 112.308 121.706 100.75 121.706Z" fill="#B29738"/>
<path d="M100.75 111.631V110.019C105.86 110.019 110.019 105.86 110.019 100.75H111.631C111.631 106.755 106.746 111.631 100.75 111.631Z" fill="#B29738"/>
<path d="M192.23 0H190.618V100.75H192.23V0Z" fill="#B29738"/>
<path d="M182.155 0H180.543V100.75H182.155V0Z" fill="#B29738"/>
<path d="M172.08 0H170.468V100.75H172.08V0Z" fill="#B29738"/>
<path d="M162.006 0H160.394V100.75H162.006V0Z" fill="#B29738"/>
<path d="M151.93 0H150.318V100.75H151.93V0Z" fill="#B29738"/>
<path d="M141.856 0H140.244V100.75H141.856V0Z" fill="#B29738"/>
<path d="M131.781 0H130.169V100.75H131.781V0Z" fill="#B29738"/>
<path d="M121.706 0H120.094V100.75H121.706V0Z" fill="#B29738"/>
<path d="M111.631 0H110.019V100.75H111.631V0Z" fill="#B29738"/>
</svg>
