<svg width="202" height="403" viewBox="0 0 202 403" fill="none" xmlns="http://www.w3.org/2000/svg">
<path d="M100.75 100.75C156.356 100.75 201.499 55.6061 201.499 0.000289917L100.75 0.000289917L100.75 100.75Z" fill="#011A0C"/>
<path d="M100.75 201.5V100.75H4.57764e-05C4.57764e-05 156.356 45.144 201.5 100.75 201.5Z" fill="#011A0C"/>
<path d="M201.5 201.5H100.75C100.75 257.106 145.894 302.25 201.5 302.25V201.5Z" fill="#B29738"/>
<path d="M100.75 301.597V202.145C100.75 201.783 100.46 201.492 100.097 201.492C44.8538 201.492 5.34058e-05 246.346 5.34058e-05 301.589C5.34058e-05 301.952 0.290215 302.242 0.652908 302.242H100.105C100.468 302.242 100.758 301.952 100.758 301.589L100.75 301.597Z" fill="#011A0C"/>
<path d="M0 402.999H100.75C100.75 347.393 55.6058 302.249 0 302.249L0 402.999Z" fill="#011A0C"/>
<rect x="100.75" y="302.249" width="100.75" height="100.75" fill="#011A0C"/>
<path d="M100.75 100.952L0 100.952L0 0.202438L100.75 0.202438L100.75 100.952Z" fill="#B29738"/>
<path d="M9.91821e-05 311.519V313.131C49.5528 313.131 89.8688 353.438 89.8688 402.999H91.4808C91.4808 352.552 50.4394 311.519 9.91821e-05 311.519Z" fill="#B29738"/>
<path d="M0.000244141 321.594V323.206C43.9997 323.206 79.794 359 79.794 403H81.406C81.406 358.105 44.8862 321.594 0.000244141 321.594Z" fill="#B29738"/>
<path d="M7.62939e-05 331.67V333.282C38.4462 333.282 69.7189 364.555 69.7189 403.001H71.3309C71.3309 363.668 39.3328 331.67 7.62939e-05 331.67Z" fill="#B29738"/>
<path d="M9.91821e-05 341.743V343.355C32.8848 343.355 59.6439 370.106 59.6439 402.999H61.2559C61.2559 369.22 33.7795 341.743 9.91821e-05 341.743Z" fill="#B29738"/>
<path d="M0.000236511 351.818V353.43C27.3316 353.43 49.5691 375.66 49.5691 402.999H51.1811C51.1811 374.773 28.2182 351.818 0.000236511 351.818Z" fill="#B29738"/>
<path d="M7.24792e-05 361.894V363.506C21.7781 363.506 39.494 381.221 39.494 402.999H41.106C41.106 380.327 22.6647 361.894 7.24792e-05 361.894Z" fill="#B29738"/>
<path d="M0.000217438 371.969V373.581C16.2249 373.581 29.4191 386.775 29.4191 403H31.0311C31.0311 385.888 17.1115 371.969 0.000217438 371.969Z" fill="#B29738"/>
<path d="M5.34058e-05 382.045V383.657C10.6634 383.657 19.344 392.329 19.344 403.001H20.956C20.956 391.443 11.5581 382.045 5.34058e-05 382.045Z" fill="#B29738"/>
<path d="M0.000196457 392.118V393.73C5.11022 393.73 9.26917 397.889 9.26917 402.999H10.8812C10.8812 396.994 5.99682 392.118 0.000196457 392.118Z" fill="#B29738"/>
<path d="M100.75 110.019V111.631C150.303 111.631 190.619 151.938 190.619 201.499H192.231C192.231 151.052 151.189 110.019 100.75 110.019Z" fill="#B29738"/>
<path d="M100.75 120.094V121.706C144.749 121.706 180.544 157.5 180.544 201.5H182.156C182.156 156.605 145.636 120.094 100.75 120.094Z" fill="#B29738"/>
<path d="M100.75 130.17V131.782C139.196 131.782 170.469 163.055 170.469 201.501H172.081C172.081 162.168 140.083 130.17 100.75 130.17Z" fill="#B29738"/>
<path d="M100.75 140.244V141.856C133.634 141.856 160.394 168.607 160.394 201.5H162.006C162.006 167.721 134.529 140.244 100.75 140.244Z" fill="#B29738"/>
<path d="M100.75 150.318V151.93C128.081 151.93 150.319 174.16 150.319 201.499H151.931C151.931 173.273 128.968 150.318 100.75 150.318Z" fill="#B29738"/>
<path d="M100.75 160.394V162.006C122.528 162.006 140.244 179.721 140.244 201.499H141.856C141.856 178.827 123.414 160.394 100.75 160.394Z" fill="#B29738"/>
<path d="M100.75 170.469V172.081C116.975 172.081 130.169 185.275 130.169 201.5H131.781C131.781 184.388 117.861 170.469 100.75 170.469Z" fill="#B29738"/>
<path d="M100.75 180.545V182.157C111.413 182.157 120.094 190.829 120.094 201.501H121.706C121.706 189.943 112.308 180.545 100.75 180.545Z" fill="#B29738"/>
<path d="M100.75 190.619V192.231C105.86 192.231 110.019 196.39 110.019 201.5H111.631C111.631 195.495 106.746 190.619 100.75 190.619Z" fill="#B29738"/>
<path d="M201.5 292.981V291.369C151.947 291.369 111.631 251.061 111.631 201.5H110.019C110.019 251.947 151.06 292.981 201.5 292.981Z" fill="#B29738"/>
<path d="M201.5 282.906V281.294C157.5 281.294 121.706 245.499 121.706 201.5H120.094C120.094 246.394 156.614 282.906 201.5 282.906Z" fill="#B29738"/>
<path d="M201.5 272.831V271.219C163.053 271.219 131.781 239.946 131.781 201.5H130.169C130.169 240.833 162.167 272.831 201.5 272.831Z" fill="#B29738"/>
<path d="M201.5 262.756V261.144C168.615 261.144 141.856 234.393 141.856 201.5H140.244C140.244 235.279 167.72 262.756 201.5 262.756Z" fill="#B29738"/>
<path d="M201.5 252.681V251.069C174.168 251.069 151.931 228.839 151.931 201.5H150.319C150.319 229.726 173.282 252.681 201.5 252.681Z" fill="#B29738"/>
<path d="M201.5 242.606V240.994C179.721 240.994 162.006 223.278 162.006 201.5H160.394C160.394 224.173 178.835 242.606 201.5 242.606Z" fill="#B29738"/>
<path d="M201.5 232.531V230.919C185.275 230.919 172.081 217.725 172.081 201.5H170.469C170.469 218.611 184.388 232.531 201.5 232.531Z" fill="#B29738"/>
<path d="M201.5 222.456V220.844C190.836 220.844 182.156 212.171 182.156 201.5H180.544C180.544 213.058 189.942 222.456 201.5 222.456Z" fill="#B29738"/>
<path d="M201.5 212.381V210.769C196.389 210.769 192.231 206.61 192.231 201.5H190.619C190.619 207.505 195.503 212.381 201.5 212.381Z" fill="#B29738"/>
<path d="M100.75 192.231V190.619C51.197 190.619 10.881 150.311 10.881 100.75H9.26902C9.26902 151.197 50.3104 192.231 100.75 192.231Z" fill="#B29738"/>
<path d="M100.75 182.156V180.544C56.7503 180.544 20.956 144.749 20.956 100.75H19.344C19.344 145.644 55.8637 182.156 100.75 182.156Z" fill="#B29738"/>
<path d="M100.75 172.081V170.469C62.3037 170.469 31.031 139.196 31.031 100.75H29.419C29.419 140.083 61.4171 172.081 100.75 172.081Z" fill="#B29738"/>
<path d="M100.75 162.006V160.394C67.8651 160.394 41.1059 133.643 41.1059 100.75H39.4939C39.4939 134.529 66.9704 162.006 100.75 162.006Z" fill="#B29738"/>
<path d="M100.75 151.931V150.319C73.4184 150.319 51.1809 128.089 51.1809 100.75H49.5689C49.5689 128.976 72.5318 151.931 100.75 151.931Z" fill="#B29738"/>
<path d="M100.75 141.856V140.244C78.9717 140.244 61.2559 122.528 61.2559 100.75H59.6439C59.6439 123.423 78.0851 141.856 100.75 141.856Z" fill="#B29738"/>
<path d="M100.75 131.781V130.169C84.525 130.169 71.3308 116.975 71.3308 100.75H69.7188C69.7188 117.861 83.6384 131.781 100.75 131.781Z" fill="#B29738"/>
<path d="M100.75 121.706V120.094C90.0864 120.094 81.4058 111.421 81.4058 100.75H79.7938C79.7938 112.308 89.1917 121.706 100.75 121.706Z" fill="#B29738"/>
<path d="M100.75 111.631V110.019C95.6397 110.019 91.4808 105.86 91.4808 100.75H89.8688C89.8688 106.755 94.7531 111.631 100.75 111.631Z" fill="#B29738"/>
<path d="M9.26917 0H10.8812V100.75H9.26917V0Z" fill="#B29738"/>
<path d="M19.344 0H20.956V100.75H19.344V0Z" fill="#B29738"/>
<path d="M29.4191 0H31.0311V100.75H29.4191V0Z" fill="#B29738"/>
<path d="M39.494 0H41.106V100.75H39.494V0Z" fill="#B29738"/>
<path d="M49.5691 0H51.1811V100.75H49.5691V0Z" fill="#B29738"/>
<path d="M59.6439 0H61.2559V100.75H59.6439V0Z" fill="#B29738"/>
<path d="M69.7189 0H71.3309V100.75H69.7189V0Z" fill="#B29738"/>
<path d="M79.794 0H81.406V100.75H79.794V0Z" fill="#B29738"/>
<path d="M89.8688 0H91.4808V100.75H89.8688V0Z" fill="#B29738"/>
</svg>
