<svg width="529" height="446" viewBox="0 0 529 446" fill="none" xmlns="http://www.w3.org/2000/svg">
<path d="M103.079 62.2077C99.6776 40.3137 101.771 18.0137 124.126 6.70767C140.542 -1.59533 163.165 -1.71033 180.553 3.73367C193.727 7.85767 201.396 14.2297 207.575 26.3867C210.73 34.0067 212.978 40.6247 214.452 48.7817C214.865 51.0687 215.141 56.3827 216.237 57.6607C220.848 57.7037 231.454 57.0067 234.383 59.5217C234.719 60.5927 235.196 62.1007 234.249 62.9917C226.942 69.8687 233.373 86.3517 219.781 88.2837C219.01 88.3937 218.72 88.4387 218.074 88.4867C218.355 99.0207 217.577 105.184 214.441 115.155C216.958 116.25 258.891 121.479 263.164 121.655C272.683 110.687 278.129 101.502 293.574 99.2157C298.185 98.5327 309.541 94.7257 314.45 97.2947C315.525 97.8577 316.969 100.934 317.575 102.17C320.405 102.057 326.949 101.324 328.875 103.283C329.662 104.083 330.114 106.568 330.467 107.895C333.919 108.06 338.005 108.151 337.416 112.87C332.705 120.427 315.222 122.015 313.596 125.303C312.475 127.422 311.276 128.83 311.304 130.952C313.44 132.491 315.015 132.232 316.562 134.159C316.606 134.402 316.923 134.749 317.101 134.989C320.621 134.705 322.331 134.08 323.796 130.992C323.857 133.074 323.556 132.421 324.643 133.958L325.751 133.928C327.383 131.939 326.919 132.635 326.963 129.605L327.743 131.888C330.922 133.112 338.057 129.842 341.393 128.575C345.569 129.219 345.762 129.375 347.705 133.116C345.902 137.032 345.349 137.977 341.448 140.348C353.406 142.271 365.376 144.124 377.356 145.909C393.387 148.327 410.661 148.523 421.547 162.288C425.914 169.208 428.3 177.379 426.851 185.562C425.68 192.179 422.175 198.296 416.553 202.09C400.988 212.593 354.292 200.543 335.514 196.912C331.432 215.636 325.465 197.741 324.999 217.51C328.205 218.463 332.485 219.289 335.821 220.033C328.325 253.672 319.007 285.839 301.888 316.062C294.995 328.23 287.437 335.731 272.962 335.225L279.924 401.158C281.427 415.487 282.755 430.986 284.729 445.192L58.5776 445.244C63.0776 411.403 66.2796 391.313 63.8166 356.729C81.7896 375.058 94.3166 391.016 120.446 375.674C158.219 353.496 186.275 321.045 216.179 289.749C218.923 286.878 235.77 270.093 234.857 267.458C232.54 267.033 230.32 270.65 228.681 272.348C194.173 308.513 157.994 352.95 113.376 376.338C83.8427 392.466 47.1506 332.875 37.4086 310.067C21.4436 272.69 -9.01837 215.642 2.56763 174.28C5.97663 163.169 20.1786 160.912 29.1236 156.848C48.0926 148.232 71.1986 142.863 89.7496 134.613L90.3246 134.354L92.2086 132.978C95.0886 129.801 103.774 119.832 106.637 117.644C106.711 118.39 106.799 119.291 106.902 120.344C126.696 143.219 156.271 182.976 174.744 204.597C174.552 194.654 174.454 184.709 174.449 174.765C171.453 172.085 168.18 169.271 165.285 166.519C163.064 170.703 161.237 174.585 158.132 178.18C158.651 175.325 168.981 152.863 171.12 150.203C169.418 148.605 157.305 143.804 154.079 142.146C138.465 134.119 122.44 126.162 109.399 114.226C110.488 108.622 111.313 97.2017 111.542 91.5487L111.377 91.0837C105.086 85.4937 94.7196 69.7797 103.079 62.2077Z" fill="#1A1919"/>
<path d="M103.079 62.2077C99.6777 40.3137 101.771 18.0137 124.126 6.70767C140.542 -1.59533 163.165 -1.71033 180.553 3.73367C193.727 7.85767 201.396 14.2297 207.575 26.3867C210.73 34.0067 212.978 40.6247 214.452 48.7817C214.865 51.0687 215.141 56.3827 216.237 57.6607C220.848 57.7037 231.454 57.0067 234.383 59.5217C234.719 60.5927 235.196 62.1007 234.249 62.9917C226.942 69.8687 233.373 86.3517 219.781 88.2837C219.01 88.3937 218.72 88.4387 218.074 88.4867C218.355 99.0207 217.577 105.184 214.441 115.155C216.958 116.25 258.891 121.479 263.164 121.655C261.721 123.952 259.863 127.534 257.661 128.75C258.149 130.471 257.704 130.575 256.91 132.529C254.581 138.619 248.565 154.28 245.604 159.654C243.816 162.133 241.445 165.222 239.824 167.729C238.342 169.843 236.1 173.588 233.755 174.415C219.137 169.727 214.519 158.92 217.051 144.383C211.308 142.998 203.183 141.775 197.099 140.574C195.299 141.09 189.793 142.542 188.415 143.29C187.304 141.67 180.911 142.06 178.858 142.14C176.583 145.443 175.97 146.215 173.015 148.887L172.951 150.112L171.12 150.203C169.418 148.605 157.305 143.804 154.079 142.146C138.465 134.119 122.44 126.162 109.399 114.226C110.488 108.622 111.313 97.2017 111.542 91.5487L111.377 91.0837C105.086 85.4937 94.7197 69.7797 103.079 62.2077Z" fill="#334D2D"/>
<path d="M103.079 62.2077C99.6775 40.3137 101.771 18.0137 124.126 6.70767C140.542 -1.59533 163.165 -1.71033 180.553 3.73367C193.727 7.85767 201.396 14.2297 207.575 26.3867C210.73 34.0067 212.978 40.6247 214.452 48.7817C214.865 51.0687 215.141 56.3827 216.237 57.6607C220.848 57.7037 231.454 57.0067 234.383 59.5217C234.719 60.5927 235.196 62.1007 234.249 62.9917C226.942 69.8687 233.373 86.3517 219.781 88.2837C219.01 88.3937 218.72 88.4387 218.074 88.4867C215.305 88.2327 211.87 87.1787 210.199 89.4637C210.077 95.6007 206.685 101.301 199.81 98.8917C200.248 97.4087 213.943 96.3457 203.978 81.1227C202.068 78.2037 200.943 69.5617 196.997 67.4867C186.951 68.8327 193.696 87.6187 177.524 88.2957C155.834 89.2027 154.352 84.6377 153.724 64.6557C146.926 65.0127 140.126 65.3287 133.325 65.6047C133.099 69.9657 134.181 74.7747 130.654 77.3617C125.481 78.1647 125.047 77.6667 122.732 73.1717C118.001 63.9837 114.179 58.7157 103.079 62.2077Z" fill="#1A1919"/>
<path d="M147.018 46.9399C145.739 42.0519 142.16 27.5899 148.555 25.2829C159.966 21.1669 172.496 23.4199 184.198 24.4059C192.53 25.1079 199.323 23.2109 207.575 26.3869C210.73 34.0069 212.978 40.6249 214.452 48.7819C214.865 51.0689 215.141 56.3829 216.237 57.6609C214.772 57.5669 210.087 57.2619 208.839 57.5469C200.443 59.4639 202.031 61.8269 193.055 60.9139C184.865 52.5679 157.387 55.4589 146.603 57.8969C143.177 58.6719 139.594 58.5439 136.082 58.4689C139.51 53.3679 142.413 50.7239 147.018 46.9399Z" fill="#334D2D"/>
<path d="M188.852 115.535C190.457 109.539 191.399 106.927 197.877 106.769C201.203 108.005 205.335 109.319 205.637 113.585C207.893 113.952 212.416 114.562 214.441 115.155C216.958 116.25 258.891 121.479 263.164 121.655C261.721 123.952 259.863 127.534 257.661 128.75C258.149 130.471 257.704 130.575 256.91 132.529C254.581 138.619 248.565 154.28 245.604 159.654C243.816 162.133 241.445 165.222 239.824 167.729C238.342 169.843 236.1 173.588 233.755 174.415C219.137 169.727 214.519 158.92 217.051 144.383C211.308 142.998 203.183 141.775 197.099 140.574C203.84 133.742 203.462 133.269 207.672 124.335C200.685 122.61 199.558 129.476 191.276 126.399C187.311 124.925 182.49 123.381 180.425 119.267L181.05 118.843C184.522 119.553 185.618 121.705 188.715 122.358L189.646 121.671L189.637 118.471L188.852 115.535Z" fill="#1A1919"/>
<path d="M207.672 124.335L227.675 127.447L240.017 129.2C220.197 137.476 214.929 162.156 239.824 167.729C238.342 169.843 236.1 173.588 233.755 174.415C219.137 169.727 214.519 158.92 217.051 144.383C211.308 142.998 203.183 141.775 197.099 140.574C203.84 133.742 203.462 133.269 207.672 124.335Z" fill="#B29738"/>
<path d="M207.672 124.335L227.675 127.447C221.283 133.661 219.634 135.589 217.051 144.383C211.308 142.998 203.183 141.775 197.099 140.574C203.84 133.742 203.462 133.269 207.672 124.335Z" fill="#D3E5CD"/>
<path d="M188.852 115.535C190.457 109.539 191.399 106.927 197.877 106.769C201.203 108.005 205.335 109.319 205.637 113.585C207.893 113.952 212.416 114.562 214.441 115.155C216.958 116.25 258.891 121.479 263.164 121.655C261.721 123.952 259.863 127.534 257.661 128.75C237.472 125.646 215.725 122.037 195.485 120.668L195.019 121.843C196.203 122.627 196.39 122.707 197.415 123.761L196.288 124.238C192.295 122.889 192.003 122.31 190.608 118.492L189.637 118.471L188.852 115.535Z" fill="#B29738"/>
<path d="M188.852 115.535C190.457 109.539 191.399 106.927 197.877 106.769C201.203 108.005 205.335 109.319 205.637 113.585C198.013 110.321 193.141 111.209 195.485 120.668L195.019 121.843C196.203 122.627 196.39 122.707 197.415 123.761L196.288 124.238C192.295 122.889 192.003 122.31 190.608 118.492L189.637 118.471L188.852 115.535Z" fill="#1A1919"/>
<path d="M190.608 118.492C190.879 114.124 190.955 109.762 196.073 108.389L197.237 108.56C198.272 113.175 189.913 112.485 195.019 121.843C196.203 122.627 196.39 122.707 197.415 123.761L196.288 124.238C192.295 122.889 192.003 122.31 190.608 118.492Z" fill="#B29738"/>
<path d="M227.591 145.974C234.755 130.296 241.264 129.435 256.91 132.529C254.581 138.619 248.565 154.28 245.604 159.654C240.464 149.628 238.159 148.681 227.591 145.974Z" fill="#D3E5CD"/>
<path d="M173.015 148.887C171.499 147.644 158.854 140.895 156.376 139.387C141.096 130.095 129.11 124.678 124.461 105.784C123.928 103.617 123.344 103.211 124.163 101.804C127.704 102.962 130.034 118.405 137.04 123.504C150.451 133.264 163.18 137.669 178.858 142.14C176.583 145.443 175.97 146.215 173.015 148.887Z" fill="#1A1919"/>
<path d="M178.069 113.242C177.66 113.169 177.527 112.902 177.112 112.519C180.149 105.266 197.54 98.9861 204.41 104.092C206.016 105.285 209.458 108.643 208.121 110.737C203.759 107.154 203.528 106.394 198.137 105.982L197.877 106.769C191.399 106.927 190.457 109.539 188.852 115.535C185.248 114.819 181.653 114.054 178.069 113.242Z" fill="#1A1919"/>
<path d="M178.069 113.242C185.016 110.922 186.255 106.097 198.137 105.982L197.877 106.769C191.399 106.927 190.457 109.539 188.852 115.535C185.248 114.819 181.653 114.054 178.069 113.242Z" fill="#334D2D"/>
<path d="M111.377 91.0838C114.167 91.0528 117.452 91.2348 119.7 89.7328C120.168 89.4198 120.248 89.4908 120.866 89.4248C119.63 94.4998 115.01 94.5938 111.542 91.5488L111.377 91.0838Z" fill="#1A1919"/>
<path d="M106.037 65.1758C112.74 65.4088 117.009 71.1898 119.497 77.2308C119.949 78.3298 119.259 79.0608 118.647 79.9458C116.542 79.4938 117.137 75.9558 114.213 74.6868C109.816 76.3058 110.563 78.8008 111.848 82.6268C112.523 83.6528 112.372 83.0968 112.257 84.3648C109.964 83.0538 108.828 81.0098 108.317 78.4728C108.761 75.9998 110.898 74.6268 112.874 72.4188C113.444 68.8978 109.966 67.6658 106.994 67.1098C105.258 67.5718 104.272 69.3168 103.078 70.8438L102.761 69.9338C103.201 67.6828 104.43 66.7788 106.037 65.1758Z" fill="#1A1919"/>
<path d="M184.779 88.4258C184.859 89.1628 183.966 91.9368 183.724 92.7488C184.448 95.3968 184.262 94.6408 186.551 96.7118L186.556 98.1128C180.365 96.2868 180.691 92.3528 184.779 88.4258Z" fill="#1A1919"/>
<path d="M189.413 94.5322C191.701 94.6162 197.271 94.8692 197.525 97.9282C193.652 96.6422 190.458 98.0562 188.622 96.2632L189.413 94.5322Z" fill="#1A1919"/>
<path d="M263.164 121.655C272.683 110.687 278.129 101.502 293.574 99.2159C298.185 98.5329 309.541 94.7258 314.45 97.2948C315.525 97.8578 316.969 100.934 317.575 102.17C320.405 102.057 326.949 101.324 328.875 103.283C329.662 104.083 330.114 106.568 330.467 107.895C333.919 108.06 338.005 108.151 337.416 112.87C332.705 120.427 315.222 122.015 313.596 125.303C312.475 127.422 311.276 128.83 311.304 130.952C313.44 132.491 315.015 132.232 316.562 134.159C316.606 134.402 316.923 134.749 317.101 134.989C320.621 134.705 322.331 134.08 323.796 130.992C323.857 133.074 323.556 132.421 324.643 133.958L325.751 133.928C327.383 131.939 326.919 132.635 326.963 129.605L327.743 131.888C330.922 133.112 338.057 129.842 341.393 128.575C345.569 129.219 345.762 129.375 347.705 133.116C345.902 137.032 345.349 137.977 341.448 140.348L340.695 138.569C330.177 143.227 314.671 147.676 305.562 153.615C300.207 157.106 295.808 174.538 289.304 180.937C276.381 193.65 263.915 197.947 252.137 212.578C245.438 206.055 232.527 190.593 225.734 182.955C227.949 182.358 232.958 176.529 233.755 174.415C236.1 173.588 238.342 169.843 239.824 167.729C241.445 165.222 243.816 162.133 245.604 159.654C248.565 154.28 254.581 138.619 256.91 132.529C257.704 130.575 258.149 130.471 257.661 128.75C259.863 127.534 261.721 123.952 263.164 121.655Z" fill="#334D2D"/>
<path d="M316.562 134.159C314.41 135.891 308.751 134.234 305.714 133.874C303.97 134.595 302.709 137.194 301.354 139.032L300.515 138.932L300.164 138.069C301.512 133.818 306.576 131.313 309.146 128.233C311.292 125.661 310.639 125.965 313.596 125.303C312.475 127.422 311.276 128.83 311.304 130.952C313.44 132.491 315.015 132.232 316.562 134.159Z" fill="#1A1919"/>
<path d="M341.393 128.575C345.569 129.219 345.762 129.375 347.705 133.116C345.902 137.032 345.349 137.977 341.448 140.348L340.695 138.569C342.722 137.432 343.898 136.647 344.472 134.343C344.334 132.021 342.808 130.434 341.393 128.575Z" fill="#1A1919"/>
<path d="M309.711 101.099C311.33 100.877 314.077 100.433 315.179 101.72C311.16 105.122 300.178 103.348 292.93 107.798C285.01 112.66 280.748 117.942 274.313 124.518C272.962 125.814 272.694 125.898 270.925 126.542L270.663 126.141C271.71 122.931 277.271 118.206 279.517 115.571C288.633 104.877 296.504 103.452 309.711 101.099Z" fill="#1A1919"/>
<path d="M328.935 107.4L329.306 108.266C327.339 110.56 316.287 112.006 312.7 112.895C299.134 116.257 293.214 124.238 284.222 134.242L283.275 132.771C284.03 129.808 287.847 127.169 289.799 124.703C299.553 112.386 314.19 109.68 328.935 107.4Z" fill="#1A1919"/>
<path d="M197.099 140.574C203.183 141.775 211.308 142.998 217.051 144.383C214.519 158.92 219.137 169.727 233.755 174.415C232.958 176.529 227.949 182.358 225.734 182.955C232.527 190.593 245.438 206.055 252.137 212.578C255.398 216.422 260.5 222.089 263.345 226.02C258.521 230.416 253.295 234.715 248.619 239.113C236.95 223.971 225.125 208.949 213.146 194.05C195.505 206.913 177.395 221.752 160.015 235.194C140.905 249.975 120.373 265.69 102.773 282.122C102.651 278.169 112.086 270.381 115.244 267.379C142.163 245.585 171.211 224.198 197.562 202.242C193.458 191.678 187.046 181.479 182.686 171.002L185.031 164.116C186.208 165.692 189.575 170.691 191.04 171.242C191.144 166.138 177.03 153.085 172.951 150.112L173.015 148.887C175.97 146.215 176.583 145.443 178.858 142.14C180.911 142.06 187.304 141.67 188.415 143.29C189.793 142.542 195.299 141.09 197.099 140.574Z" fill="#D3E5CD"/>
<path d="M197.099 140.574C203.183 141.775 211.308 142.998 217.051 144.383C214.519 158.92 219.137 169.727 233.755 174.415C232.958 176.529 227.949 182.358 225.734 182.955C225.222 182.867 224.709 182.779 224.196 182.691C219.412 186.683 208.571 193.868 203.857 197.175C198.826 182.341 192.648 158.737 188.415 143.29C189.793 142.542 195.299 141.09 197.099 140.574Z" fill="#1A1919"/>
<path d="M246.469 222.3C250.088 222.356 252.577 222.353 253.736 226.105C253.437 228.223 252.455 228.983 251.02 230.527C245.561 232.577 243.708 227.059 246.469 222.3Z" fill="#1A1919"/>
<path d="M112.275 267.294C103.692 247.762 91.8276 228.227 82.1326 209.141C80.5096 205.946 77.7756 202.438 76.5136 199.294L76.9286 198.37C80.6206 199.823 88.2896 215.884 90.5626 220.338C90.6336 216.995 90.2626 208.171 92.3656 205.998C95.3756 207.55 91.8776 221.154 93.2216 224.086C99.7776 238.381 107.732 253.657 115.244 267.379C112.086 270.381 102.651 278.169 102.773 282.122C97.5546 285.252 87.8856 303.102 85.6466 309.018C84.6476 311.657 82.1326 318.037 80.5046 319.828L79.4966 319.732L78.9806 318.583C85.9356 298.249 93.6596 288.529 106.949 272.553C97.0246 275.579 85.1276 285.126 80.1766 294.234C79.2746 295.891 75.7996 301.255 74.5946 302.159L73.8096 301.728C73.8536 300.286 74.0426 299.651 74.7306 298.366C83.3736 282.219 95.6006 273.314 112.275 267.294Z" fill="#D3E5CD"/>
<path d="M90.3247 134.354L92.2087 132.978L104.37 172.618C110.467 173.175 124.294 174.538 130.06 175.865C126.744 181.928 123.169 187.846 119.345 193.603C127.371 200.11 156.022 222.274 160.55 229.348C147.697 220.841 129.261 204.307 116.826 194.192C119.971 188.732 123.24 182.716 126.572 177.446C118.61 176.706 110.302 175 102.848 174.375C99.9517 165.707 97.2147 156.987 94.6387 148.218C93.7107 145.132 91.3997 136.767 90.3247 134.354Z" fill="#D3E5CD"/>
<path d="M328.213 148.917L335.231 150.003C350.173 153.453 366.736 154.464 381.952 157.327C393.638 159.526 406.379 159.115 413.932 170.374C418.601 177.334 416.813 188.974 409.495 193.448C405.235 196.052 397.722 195.37 392.724 195.194C395.488 174.442 370.9 177.395 355.137 174.419C356.457 171.018 358.251 167.13 354.529 164.852C350.091 164.583 348.281 165.736 345.373 162.357C344.027 160.794 343.056 159.224 341.007 159.064C339.208 158.926 337.398 159.009 335.618 159.31C334.59 159.885 329.426 161.648 328.015 162.157C328.238 157.879 328.181 153.228 328.213 148.917Z" fill="#D3E5CD"/>
<path d="M328.213 148.917L335.231 150.003C335.21 152.331 334.94 157.345 335.618 159.31C334.59 159.885 329.426 161.648 328.015 162.157C328.238 157.879 328.181 153.228 328.213 148.917Z" fill="#334D2D"/>
<path d="M323.242 148.441L324.82 148.464C326.62 150.567 325.387 159.525 325.152 162.641C321.226 163.776 316.588 165.345 315.486 169.85C315.619 174.879 319.188 175.509 323.102 175.997C325.28 178.253 322.205 177.437 323.369 180.494C325.464 181.333 328.055 181.832 330.298 182.21C346.821 184.996 363.364 187.654 379.874 190.505C381.582 190.8 381.011 190.826 382.328 189.808C382.476 188.951 382.804 188.515 382.256 187.768C380.077 184.801 333.028 178.619 325.918 177.5C329.364 175.623 331.96 174.144 335.896 173.967C344.17 175.336 383.328 180.145 387.603 183.736C389.266 185.132 390.041 187.222 390.256 189.333C390.501 191.734 390.043 193.251 388.513 195.039C382.451 196.507 326.141 184.409 313.218 183.279C313.558 172.785 313.968 162.294 314.447 151.806C316.935 150.617 320.56 149.412 323.242 148.441Z" fill="#B29738"/>
<path d="M310.506 153.317L311.434 153.861C312.393 158.36 309.477 209.677 308.769 216.484L298.704 214.889C298.834 211.577 299.117 208.138 299.342 204.82C299.565 201.019 299.541 196.268 299.627 192.391C303.866 191.053 308.613 190.144 308.435 184.905C307.333 182.433 305.485 181.187 303.404 179.442C308 177.989 311.935 174.345 307.933 169.283C306.571 167.56 302.687 167.798 300.479 167.752L300.949 166.307C303.291 159.173 303.613 156.797 310.506 153.317Z" fill="#B29738"/>
<path d="M313.019 193.028L323.411 195.176C322.987 201.29 323.082 212.804 321.879 218.1C318.493 217.821 314.845 217.308 311.45 216.898C312.486 209.654 312.069 200.727 313.019 193.028Z" fill="#B29738"/>
<path d="M339.281 160.971C343.43 161.403 345.923 165.838 344.764 169.688C341.569 172.924 336.87 171.477 332.812 171.98C331.463 172.148 328.573 173.104 327.181 173.557C323.429 173.561 320.573 174.489 318.302 171.134C317.536 165.036 334.246 162.295 339.281 160.971Z" fill="#334D2D"/>
<path d="M287.075 192.878C290.071 193.082 294.073 192.817 297.153 192.704C296.646 200.02 296.496 206.907 295.66 214.237L286.015 212.69C286.262 205.992 286.484 199.568 287.075 192.878Z" fill="#B29738"/>
<path d="M283.323 190.285C283.466 190.425 283.629 190.549 283.753 190.706C285.637 193.086 278.043 213.516 277.471 218.288L277.399 218.932L276.915 218.821L276.097 216.381C274.428 209.659 272.747 204.743 270.098 198.393C274.8 196.024 279.134 193.476 283.323 190.285Z" fill="#D3E5CD"/>
<path d="M291.118 182.019C296.471 185.661 299.622 180.211 304.671 183.298C305.984 185.054 305.796 184.267 305.604 186.203C304.355 188.051 303.964 188.146 301.873 188.999C298.058 189.773 288.519 192.39 286.675 188.19C287.2 185.662 289.258 183.997 291.118 182.019Z" fill="#B29738"/>
<path d="M301.78 170.238L304.509 170.439C306.488 171.845 305.977 171.095 306.639 173.192C305.54 176.791 304.017 176.662 300.633 177.224C298.62 177.662 297.25 178.26 295.539 177.118C295.116 173.416 298.674 171.241 301.78 170.238Z" fill="#B29738"/>
<path d="M325.833 195.389C328.258 195.844 330.778 195.937 332.345 197.617C332.994 199.858 332.056 201.525 331.234 203.824C328.941 204.451 328.113 204.18 326.412 202.791C325.341 200.549 325.729 197.933 325.833 195.389Z" fill="#334D2D"/>
<path d="M349.254 166.25C350.351 166.429 351.324 166.782 352.382 167.119C353.949 168.797 353.521 167.99 354.068 170.167C353.452 172.226 353.385 172.556 351.89 174.075C350.073 173.85 348.559 173.914 347.228 172.777C346.921 170.487 348.204 168.654 349.254 166.25Z" fill="#334D2D"/>
<path d="M490.637 116.035C494.59 107.917 501.479 96.948 512.338 101.899C518.181 104.564 522.746 114.753 524.378 120.834C531.463 147.237 529.916 179.629 518.675 204.684C515.543 211.663 506.88 219.441 499.124 214.987C493.169 211.687 489.264 202.263 487.087 195.974C477.186 186.729 470.089 179.971 458.019 173.625C451.509 170.202 427.272 160.472 421.547 162.288C410.661 148.523 393.387 148.327 377.356 145.909C365.376 144.124 353.406 142.271 341.448 140.348C345.349 137.977 345.902 137.032 347.705 133.116C351.792 134.675 391.26 137.847 398.137 138.366C433.83 141.057 462.301 140.502 490.637 116.035Z" fill="#D3E5CD"/>
<path d="M490.637 116.035C482.133 140.272 479.03 171.365 487.087 195.974C477.186 186.729 470.089 179.971 458.019 173.625C451.509 170.202 427.272 160.472 421.547 162.288C410.661 148.523 393.387 148.327 377.356 145.909C365.376 144.124 353.406 142.271 341.448 140.348C345.349 137.977 345.902 137.032 347.705 133.116C351.792 134.675 391.26 137.847 398.137 138.366C433.83 141.057 462.301 140.502 490.637 116.035Z" fill="#B29738"/>
<path d="M505.86 105.208C512.541 105.27 515.448 110.35 518.2 115.732C528.353 135.583 528.172 202.153 504.971 211.615C480.139 205.151 480.721 119.909 505.86 105.208Z" fill="#B29738"/>
<path d="M496.545 125.062C513.978 129.494 508.117 177.076 498.475 189.645C496.426 190.79 495.769 190.764 493.778 190.024C485.235 181.541 487.633 134.883 496.545 125.062Z" fill="#1A1919"/>
<path d="M323.796 130.992L323.183 129.493L320.585 128.758C319.315 127.466 319.671 128.09 319.658 125.778C322.391 124.246 331.482 124.006 333.545 127.019L332.988 128.44C331.49 129.555 328.974 129.451 326.963 129.605C326.919 132.635 327.383 131.939 325.751 133.928L324.643 133.958C323.556 132.421 323.857 133.074 323.796 130.992Z" fill="#1A1919"/>
</svg>
